<?xml version="1.0" encoding="iso-8859-1"?>
<!-- Generator: Adobe Illustrator 19.0.0, SVG Export Plug-In . SVG Version: 6.00 Build 0)  -->
<svg version="1.1" id="Layer_1" xmlns="http://www.w3.org/2000/svg" xmlns:xlink="http://www.w3.org/1999/xlink" x="0px" y="0px"
	 viewBox="0 0 511.999 511.999" style="enable-background:new 0 0 511.999 511.999;" xml:space="preserve">
<circle style="fill:#333E48;" cx="382.833" cy="349.548" r="109.949"/>
<circle style="fill:#FFFFFF;" cx="382.833" cy="349.548" r="90.226"/>
<circle style="fill:#E94F3D;" cx="382.833" cy="349.548" r="50.548"/>
<path style="fill:#00783E;" d="M332.277,349.546c0,3.249,0.319,6.422,0.904,9.499c7.246,7.92,17.633,12.917,29.212,12.917
	c21.887,0,39.629-17.74,39.629-39.626c0-13.995-7.269-26.268-18.22-33.318c-0.326-0.005-0.648-0.024-0.974-0.024
	C354.91,298.994,332.277,321.628,332.277,349.546z"/>
<path style="fill:#FF8189;" d="M377.986,299.228c-3.791,8.137-5.921,17.201-5.921,26.771c0,28.629,18.956,52.821,44.995,60.733
	c10.032-9.235,16.319-22.477,16.319-37.186c0-27.918-22.63-50.552-50.549-50.552C381.193,298.994,379.581,299.078,377.986,299.228z"
	/>
<g>
	<path style="fill:#D1D3D3;" d="M421.46,290.088c2.837,0,5.137-2.301,5.137-5.137s-2.3-5.137-5.137-5.137h-8.321
		c-2.836,0-5.135,2.301-5.135,5.137s2.298,5.137,5.135,5.137H421.46z"/>
	<path style="fill:#D1D3D3;" d="M325.423,406.672c2.005,2.005,5.258,2.005,7.264,0c2.006-2.007,2.006-5.259,0-7.264l-5.884-5.882
		c-2.006-2.007-5.259-2.007-7.265,0c-2.006,2.005-2.006,5.256,0,7.261L325.423,406.672z"/>
	<path style="fill:#D1D3D3;" d="M420.693,417.899c2.006,2.007,5.259,2.007,7.264,0c2.007-2.005,2.006-5.257,0-7.264l-5.884-5.882
		c-2.005-2.007-5.258-2.007-7.262,0c-2.007,2.005-2.007,5.259,0,7.264L420.693,417.899z"/>
	<path style="fill:#D1D3D3;" d="M346.93,291.605c2.003-2.005,2.003-5.257,0-7.264c-2.007-2.007-5.26-2.005-7.265,0l-5.886,5.882
		c-2.004,2.007-2.004,5.262,0,7.266c2.007,2.005,5.26,2.005,7.268,0L346.93,291.605z"/>
	<path style="fill:#D1D3D3;" d="M464.269,345.385c0-2.835-2.3-5.137-5.137-5.137c-2.837,0-5.137,2.301-5.137,5.137v8.322
		c0,2.835,2.3,5.134,5.137,5.134c2.836,0,5.137-2.301,5.137-5.137V345.385z"/>
	<path style="fill:#D1D3D3;" d="M324.724,304.516c-2.005-2.002-5.258-2.002-7.264,0c-2.005,2.01-2.003,5.262,0,7.266l5.886,5.885
		c2.005,2.005,5.255,2.005,7.262,0c2.006-2.004,2.006-5.259,0-7.266L324.724,304.516z"/>
	<path style="fill:#D1D3D3;" d="M442.149,312.597c-2.006-2.005-5.259-2.005-7.264,0c-2.007,2.007-2.006,5.259,0,7.266l5.885,5.883
		c2.005,2.004,5.257,2.004,7.263,0c2.006-2.005,2.006-5.259,0-7.264L442.149,312.597z"/>
</g>
<circle style="fill:#333E48;" cx="132.836" cy="349.548" r="109.949"/>
<circle style="fill:#FFFFFF;" cx="132.836" cy="349.548" r="90.226"/>
<circle style="fill:#E94F3D;" cx="132.836" cy="349.548" r="50.548"/>
<path style="fill:#00783E;" d="M82.284,349.546c0,3.249,0.319,6.422,0.904,9.499c7.245,7.92,17.633,12.917,29.212,12.917
	c21.886,0,39.629-17.74,39.629-39.626c0-13.995-7.268-26.268-18.22-33.318c-0.327-0.005-0.649-0.024-0.975-0.024
	C104.917,298.994,82.284,321.628,82.284,349.546z"/>
<path style="fill:#FF8189;" d="M127.992,299.228c-3.791,8.137-5.921,17.201-5.921,26.771c0,28.629,18.954,52.821,44.995,60.733
	c10.031-9.235,16.319-22.477,16.319-37.186c0-27.918-22.631-50.552-50.551-50.552C131.199,298.994,129.586,299.078,127.992,299.228z
	"/>
<g>
	<path style="fill:#D1D3D3;" d="M171.466,290.088c2.837,0,5.137-2.301,5.137-5.137s-2.3-5.137-5.137-5.137h-8.321
		c-2.837,0-5.135,2.301-5.135,5.137s2.298,5.137,5.135,5.137H171.466z"/>
	<path style="fill:#D1D3D3;" d="M75.43,406.672c2.005,2.005,5.258,2.005,7.262,0c2.007-2.007,2.007-5.259,0-7.264l-5.884-5.882
		c-2.006-2.007-5.258-2.007-7.265,0c-2.005,2.005-2.005,5.256,0,7.261L75.43,406.672z"/>
	<path style="fill:#D1D3D3;" d="M170.7,417.899c2.006,2.007,5.258,2.007,7.264,0c2.007-2.005,2.005-5.257,0-7.264l-5.884-5.882
		c-2.006-2.007-5.258-2.007-7.264,0c-2.007,2.005-2.007,5.259,0,7.264L170.7,417.899z"/>
	<path style="fill:#D1D3D3;" d="M96.935,291.605c2.003-2.005,2.003-5.257,0-7.264c-2.007-2.007-5.259-2.005-7.265,0l-5.885,5.882
		c-2.005,2.007-2.005,5.262,0,7.266c2.007,2.005,5.259,2.005,7.266,0L96.935,291.605z"/>
	<path style="fill:#D1D3D3;" d="M214.276,345.385c0-2.835-2.3-5.137-5.136-5.137c-2.837,0-5.137,2.301-5.137,5.137v8.322
		c0,2.835,2.3,5.134,5.135,5.134c2.838,0,5.138-2.301,5.138-5.137V345.385z"/>
	<path style="fill:#D1D3D3;" d="M74.73,304.516c-2.006-2.002-5.258-2.002-7.264,0c-2.006,2.01-2.005,5.262,0,7.266l5.885,5.885
		c2.006,2.005,5.256,2.005,7.264,0c2.005-2.004,2.005-5.259,0-7.266L74.73,304.516z"/>
	<path style="fill:#D1D3D3;" d="M192.154,312.597c-2.006-2.005-5.258-2.005-7.264,0c-2.007,2.007-2.005,5.259,0,7.266l5.885,5.883
		c2.006,2.004,5.257,2.004,7.262,0c2.007-2.005,2.007-5.259,0-7.264L192.154,312.597z"/>
</g>
<path style="fill:#B3874F;" d="M495.952,187.275c3.379,0.209,6.033,3.142,5.9,6.528l-0.314,7.942
	c-0.132,3.38-3.011,6.101-6.393,6.041l-481.348-8.29c-3.382-0.06-6.041-2.873-5.907-6.253l1.175-29.83
	c0.134-3.382,3.006-5.978,6.387-5.771L495.952,187.275z"/>
<path style="fill:#997443;" d="M107.194,189.231c-11.659,0.904-21.517,5.651-29.443,11.365l8.29,0.142
	c6.227-3.587,13.418-6.278,21.509-6.906c10.358-0.806,21.093,1.839,32.094,7.83l9.179,0.161
	C134.618,192.431,120.667,188.188,107.194,189.231z M463.811,207.246l7.504,0.13c7.607-5.076,18.084-9.736,30.323-8.127l0.184-4.652
	C489.338,193.109,476.625,197.33,463.811,207.246z M89.053,162.182l-10.249-0.632c-21.427,9.105-46.687,18.966-70.46,20.153
	l-0.183,4.641c27.584-1.269,56.73-13.778,80.12-23.83C88.542,162.403,88.795,162.293,89.053,162.182z M233.162,182.207
	c9.198,0,19.008-3.135,29.327-9.331l-8.686-0.534c-8.267,3.973-16.082,5.711-23.372,5.144c-7.746-0.605-14.31-3.728-19.885-7.814
	l-7.886-0.485c7.067,6.433,15.99,12.01,27.413,12.898C231.094,182.166,232.124,182.207,233.162,182.207z M117.427,174.638
	c-28.724-3.402-53.108,13.255-69.244,24.271c-0.571,0.392-1.128,0.771-1.683,1.147l8.002,0.139
	c15.48-10.449,37.454-23.915,62.385-20.976c19.675,2.323,35.286,11.022,50.385,19.437c2.184,1.217,4.349,2.421,6.505,3.595
	l10.349,0.177c-4.818-2.351-9.663-5.046-14.608-7.803C154.748,186.395,138.009,177.068,117.427,174.638z M460.467,185.085
	c-19.335,9.848-49.476,17.439-80.502-4.962l-7.703-0.476c14.738,11.743,32.634,19.614,52.335,19.614
	c14.134,0,29.198-4.058,44.678-13.631L460.467,185.085z M333.116,187.45c-26.062-10.158-44.746,3.024-58.279,16.543l6.513,0.111
	c12.438-11.555,28.418-20.802,50.088-12.356c8.831,3.442,18.003,7.449,26.872,11.324c1.883,0.822,3.759,1.642,5.627,2.454
	l12.212,0.209c-5.313-2.228-10.668-4.565-15.989-6.89C351.246,194.95,342.031,190.922,333.116,187.45z M291.24,174.65l-7.942-0.49
	c-0.908,0.594-1.818,1.195-2.739,1.803c-8.783,5.807-18.739,12.389-33.503,15.216c-25.548,4.897-52.61-10.807-71.193-23.642
	l-8.769-0.539c16.744,12.04,43.222,29.713,70.083,29.713c3.583,0,7.173-0.315,10.748-1c15.669-3.002,26.034-9.853,35.18-15.899
	C285.908,177.958,288.574,176.205,291.24,174.65z"/>
<path style="fill:#B3874F;" d="M499.09,149.276c3.316,0.678,5.531,3.957,4.927,7.288l-1.422,7.819
	c-0.606,3.331-3.834,5.622-7.177,5.087L19.976,93.837c-3.34-0.534-5.579-3.69-4.973-7.019l5.342-29.369
	c0.605-3.331,3.811-5.498,7.13-4.818L499.09,149.276z"/>
<path style="fill:#997443;" d="M113.89,96.756c-11.672-0.735-22.095,2.584-30.745,7.13l8.19,1.305
	c6.667-2.683,14.166-4.339,22.265-3.827c10.366,0.651,20.627,4.774,30.681,12.247l9.066,1.44
	C140.595,103.77,127.378,97.612,113.89,96.756z M464.466,164.549l7.416,1.18c8.241-3.96,19.268-7.106,31.161-3.8l0.834-4.581
	C491.725,154.123,478.547,156.523,464.466,164.549z M99.716,67.433l-10.059-2.062C67.166,71.385,40.774,77.61,17.07,75.456
	l-0.832,4.57c27.49,2.609,58.1-5.695,82.67-12.372C99.18,67.581,99.445,67.51,99.716,67.433z M239.599,107.446
	c9.107,1.288,19.26-0.442,30.345-5.128l-8.524-1.745c-8.744,2.776-16.725,3.401-23.864,1.817
	c-7.586-1.68-13.647-5.692-18.596-10.518l-7.739-1.588c6.097,7.361,14.148,14.134,25.335,16.613
	C237.559,107.116,238.572,107.299,239.599,107.446z M126.065,83.742c-27.962-7.389-54.441,5.687-71.96,14.334
	c-0.621,0.308-1.226,0.605-1.829,0.901l7.904,1.258c16.79-8.178,40.434-18.435,64.709-12.033
	c19.155,5.058,33.395,15.856,47.166,26.3c1.992,1.514,3.968,3.009,5.937,4.472l10.221,1.626c-4.441-3.002-8.86-6.348-13.371-9.769
	C161.371,100.61,146.104,89.03,126.065,83.742z M464.258,142.137c-20.521,7.04-51.428,10.336-79.011-16.191l-7.561-1.55
	c12.948,13.691,29.567,23.99,49.074,26.749c13.992,1.98,29.477,0.074,46.144-7.236L464.258,142.137z M337.833,126.638
	c-24.382-13.707-44.728-3.274-60.019,8.216l6.433,1.024c13.931-9.699,31.05-16.618,51.326-5.218
	c8.26,4.644,16.78,9.894,25.021,14.976c1.748,1.079,3.492,2.151,5.225,3.216l12.065,1.92c-4.949-2.952-9.926-6.019-14.869-9.067
	C354.738,136.603,346.173,131.325,337.833,126.638z M298.164,108.099l-7.794-1.596c-0.983,0.457-1.967,0.926-2.966,1.397
	c-9.509,4.521-20.289,9.644-35.303,10.374c-25.983,1.274-50.579-18.067-67.18-33.381l-8.607-1.76
	c14.892,14.266,38.632,35.473,65.23,39.237c3.547,0.498,7.146,0.692,10.783,0.515c15.936-0.776,27.158-6.108,37.061-10.815
	C292.422,110.627,295.307,109.265,298.164,108.099z"/>
<path d="M500.674,141.551L29.06,44.907c-3.702-0.76-7.459-0.014-10.583,2.096c-3.124,2.111-5.215,5.321-5.89,9.035L7.247,85.406
	c-0.676,3.712,0.15,7.45,2.327,10.524c2.177,3.076,5.43,5.098,9.165,5.695l475.435,75.631c0.74,0.118,1.477,0.176,2.207,0.176
	c6.712-0.001,12.737-4.849,13.972-11.637l1.422-7.823C513.14,150.45,508.16,143.084,500.674,141.551z M495.115,161.438L23.103,86.35
	l4.658-25.611l468.217,95.948L495.115,161.438z M132.834,251.436c-54.097,0-98.109,44.011-98.109,98.109
	c0,54.097,44.011,98.107,98.109,98.107s98.109-44.01,98.109-98.107C230.944,295.448,186.933,251.436,132.834,251.436z
	 M132.834,431.883c-45.402,0-82.339-36.937-82.339-82.337c0-45.402,36.937-82.339,82.339-82.339s82.339,36.938,82.339,82.339
	C215.174,394.946,178.237,431.883,132.834,431.883z M132.834,291.108c-32.221,0-58.436,26.215-58.436,58.438
	c0,32.22,26.215,58.434,58.436,58.434s58.436-26.214,58.436-58.434C191.27,317.323,165.056,291.108,132.834,291.108z
	 M132.834,392.21c-23.526,0-42.666-19.139-42.666-42.664c0-23.527,19.141-42.667,42.666-42.667s42.666,19.141,42.666,42.667
	C175.5,373.072,156.361,392.21,132.834,392.21z M382.829,251.436c-54.097,0-98.108,44.011-98.108,98.109
	c0,54.097,44.011,98.107,98.108,98.107c54.098,0,98.109-44.01,98.109-98.107C480.938,295.448,436.927,251.436,382.829,251.436z
	 M382.829,431.883c-45.402,0-82.338-36.937-82.338-82.337c0-45.402,36.937-82.339,82.338-82.339
	c45.402,0,82.339,36.938,82.339,82.339C465.168,394.946,428.231,431.883,382.829,431.883z M132.834,231.708
	c-64.976,0-117.837,52.861-117.837,117.838c0,64.976,52.861,117.836,117.837,117.836s117.837-52.86,117.837-117.836
	C250.671,284.569,197.81,231.708,132.834,231.708z M132.834,451.612c-56.28,0-102.067-45.787-102.067-102.066
	c0-56.28,45.787-102.068,102.067-102.068c56.279,0,102.067,45.788,102.067,102.068C234.901,405.825,189.114,451.612,132.834,451.612
	z M382.829,231.708c-64.976,0-117.837,52.861-117.837,117.838c0,64.976,52.861,117.836,117.837,117.836
	s117.837-52.86,117.837-117.836C500.666,284.569,447.805,231.708,382.829,231.708z M382.829,451.612
	c-56.28,0-102.067-45.787-102.067-102.066c0-56.28,45.787-102.068,102.067-102.068s102.067,45.788,102.067,102.068
	C484.896,405.825,439.109,451.612,382.829,451.612z M382.829,291.108c-32.221,0-58.436,26.215-58.436,58.438
	c0,32.22,26.215,58.434,58.436,58.434s58.435-26.214,58.435-58.434C441.265,317.323,415.052,291.108,382.829,291.108z
	 M382.829,392.21c-23.527,0-42.666-19.139-42.666-42.664c0-23.527,19.14-42.667,42.666-42.667c23.526,0,42.665,19.141,42.665,42.667
	C425.495,373.072,406.355,392.21,382.829,392.21z M496.441,179.406c-0.001,0-0.001,0-0.002,0L15.935,149.771
	c-3.769-0.221-7.387,1.033-10.183,3.562c-2.796,2.526-4.417,5.996-4.565,9.77l-1.175,29.829c-0.149,3.771,1.194,7.356,3.781,10.095
	c2.587,2.741,6.091,4.285,9.869,4.353l481.345,8.291c0.083,0.001,0.165,0.002,0.247,0.002c7.54,0,13.869-6.06,14.164-13.614
	l0.315-7.949C510.028,186.474,504.065,179.878,496.441,179.406z M493.721,199.875l-477.877-8.231l1.025-26.014l477.044,29.42
	L493.721,199.875z"/>
<g>
</g>
<g>
</g>
<g>
</g>
<g>
</g>
<g>
</g>
<g>
</g>
<g>
</g>
<g>
</g>
<g>
</g>
<g>
</g>
<g>
</g>
<g>
</g>
<g>
</g>
<g>
</g>
<g>
</g>
</svg>
