<?xml version="1.0" encoding="iso-8859-1"?>
<!-- Generator: Adobe Illustrator 19.0.0, SVG Export Plug-In . SVG Version: 6.00 Build 0)  -->
<svg version="1.1" id="Capa_1" xmlns="http://www.w3.org/2000/svg" xmlns:xlink="http://www.w3.org/1999/xlink" x="0px" y="0px"
	 viewBox="0 0 512.004 512.004" style="enable-background:new 0 0 512.004 512.004;" xml:space="preserve">
<g>
	<g>
		<path d="M169.309,450.638h-41.035c-5.523,0-10,4.477-10,10s4.477,10,10,10h41.035c5.523,0,10-4.477,10-10
			S174.832,450.638,169.309,450.638z"/>
	</g>
</g>
<g>
	<g>
		<path d="M198.303,450.64h-0.287c-5.523,0-10,4.477-10,10s4.477,10,10,10h0.287c5.523,0,10-4.477,10-10
			S203.825,450.64,198.303,450.64z"/>
	</g>
</g>
<g>
	<g>
		<path d="M502.004,70.528H240.42c-1.258-5.717-1.703-10.979-0.715-15.525H502c5.523,0,10-4.477,10-10v-35
			c0-2.691-1.085-5.27-3.01-7.151c-1.925-1.882-4.546-2.898-7.217-2.847l-439.996,10c-5.433,0.123-9.773,4.563-9.773,9.998v25
			c0,5.523,4.477,10,10,10h39.679c-0.571,5.07-0.259,10.265,0.626,15.526H62.004c-5.523,0-10,4.477-10,10v24.999
			c0,5.434,4.34,9.874,9.773,9.998l54.852,1.247c5.289,18.02,5.67,31.199-5.665,42.752c-17.327,17.659-19.833,36.868-18.452,52.479
			H43.289c-0.046,0-0.092,0.006-0.139,0.007c-0.234,0.003-0.466,0.017-0.697,0.036c-0.103,0.008-0.206,0.016-0.309,0.027
			c-0.04,0.004-0.08,0.006-0.12,0.011c-0.009,0.001-0.018,0.001-0.026,0.003c-0.185,0.024-0.368,0.061-0.551,0.096
			c-0.1,0.019-0.2,0.035-0.299,0.057c-0.112,0.025-0.224,0.05-0.334,0.079c-0.07,0.018-0.138,0.041-0.208,0.061
			c-0.043,0.012-0.085,0.025-0.128,0.037c-0.101,0.03-0.203,0.056-0.303,0.089c-0.157,0.051-0.31,0.111-0.463,0.17
			c-0.089,0.034-0.177,0.067-0.265,0.104c-0.069,0.029-0.14,0.056-0.208,0.086c-0.208,0.092-0.41,0.198-0.611,0.304
			c-0.033,0.018-0.067,0.032-0.1,0.05c-0.04,0.021-0.083,0.039-0.122,0.061c-0.019,0.011-0.038,0.023-0.057,0.034
			c-0.232,0.132-0.456,0.277-0.677,0.428c-0.053,0.036-0.109,0.066-0.161,0.104c-0.035,0.025-0.069,0.052-0.104,0.078
			c-0.06,0.043-0.115,0.092-0.173,0.136c-0.251,0.191-0.492,0.393-0.725,0.607c-0.076,0.07-0.15,0.142-0.224,0.215
			c-0.101,0.099-0.205,0.194-0.301,0.297c-0.004,0.004-0.009,0.008-0.013,0.012c-0.029,0.031-0.053,0.066-0.081,0.097
			c-0.089,0.098-0.174,0.199-0.259,0.301c-0.044,0.053-0.091,0.102-0.134,0.156c-0.056,0.069-0.111,0.138-0.165,0.208
			c-0.048,0.064-0.091,0.131-0.138,0.196c-0.139,0.192-0.277,0.385-0.403,0.588c-0.002,0.004-0.006,0.008-0.008,0.012
			c-0.007,0.012-0.012,0.025-0.02,0.038c-0.054,0.088-0.101,0.181-0.152,0.271c-0.111,0.196-0.222,0.393-0.32,0.598
			c-0.027,0.056-0.053,0.112-0.079,0.168c-0.039,0.083-0.069,0.168-0.105,0.252c-0.07,0.164-0.141,0.327-0.203,0.496
			c-0.042,0.113-0.077,0.229-0.114,0.343c-0.033,0.103-0.066,0.205-0.096,0.308c-0.019,0.066-0.045,0.128-0.063,0.195L0.343,343.64
			c-1.43,5.335,1.736,10.818,7.071,12.247c0.867,0.233,1.738,0.343,2.595,0.343c4.415,0,8.456-2.947,9.653-7.414l17.891-66.768
			l15.763,220.665c0.374,5.233,4.728,9.288,9.975,9.288h199.997c5.247,0,9.601-4.054,9.975-9.288l15.763-220.665l17.891,66.768
			c1.197,4.468,5.237,7.414,9.653,7.414c0.857,0,1.728-0.111,2.595-0.343c5.334-1.429,8.5-6.913,7.071-12.247L292.95,219.415
			c-0.018-0.066-0.043-0.127-0.062-0.192c-0.031-0.105-0.064-0.209-0.098-0.314c-0.037-0.114-0.072-0.228-0.113-0.34
			c-0.061-0.167-0.131-0.328-0.2-0.489c-0.037-0.087-0.069-0.175-0.108-0.261c-0.025-0.056-0.052-0.111-0.079-0.166
			c-0.098-0.203-0.207-0.397-0.317-0.59c-0.052-0.091-0.099-0.185-0.153-0.274c-0.008-0.014-0.013-0.028-0.022-0.041
			c-0.003-0.006-0.008-0.011-0.012-0.017c-0.123-0.198-0.257-0.385-0.393-0.572c-0.05-0.069-0.095-0.141-0.147-0.209
			s-0.105-0.135-0.159-0.202c-0.047-0.059-0.098-0.113-0.146-0.171c-0.077-0.091-0.154-0.183-0.234-0.271
			c-0.034-0.038-0.063-0.079-0.097-0.116c-0.005-0.005-0.01-0.01-0.015-0.015c-0.094-0.101-0.195-0.193-0.293-0.29
			c-0.078-0.076-0.155-0.151-0.235-0.225c-0.227-0.209-0.463-0.407-0.708-0.593c-0.064-0.048-0.124-0.101-0.189-0.148
			c-0.033-0.024-0.064-0.05-0.097-0.073c-0.064-0.045-0.133-0.084-0.198-0.128c-0.209-0.141-0.42-0.279-0.64-0.404
			c-0.02-0.011-0.04-0.023-0.06-0.035c-0.04-0.022-0.083-0.039-0.124-0.061c-0.038-0.021-0.078-0.038-0.116-0.058
			c-0.195-0.102-0.39-0.204-0.591-0.293c-0.069-0.031-0.141-0.058-0.211-0.087c-0.089-0.037-0.179-0.071-0.269-0.105
			c-0.152-0.059-0.303-0.117-0.458-0.169c-0.103-0.034-0.207-0.061-0.311-0.091c-0.039-0.011-0.078-0.023-0.118-0.034
			c-0.072-0.02-0.142-0.044-0.213-0.063c-0.11-0.028-0.221-0.053-0.332-0.078c-0.1-0.022-0.202-0.039-0.303-0.058
			c-0.182-0.034-0.364-0.071-0.548-0.095c-0.009-0.002-0.018-0.002-0.027-0.003c-0.04-0.005-0.08-0.006-0.12-0.011
			c-0.103-0.012-0.206-0.019-0.309-0.027c-0.232-0.02-0.464-0.033-0.698-0.036c-0.046-0.001-0.091-0.007-0.137-0.007h-48.194h-4.729
			c-1.837-16.185,2.05-27.702,12.619-38.473c16.14-16.449,16.82-35.456,12.867-53.594l245.924,5.589
			c0.076,0.001,0.151,0.002,0.228,0.002c2.609,0,5.12-1.021,6.99-2.849c1.925-1.881,3.01-4.46,3.01-7.151v-35
			C512.004,75.005,507.527,70.528,502.004,70.528z M72.004,95.753v-5.224h35.69c0.69,2.031,1.404,4.06,2.125,6.084L72.004,95.753z
			 M115.362,35.003c-0.02,0-0.039,0-0.059,0h-43.3v-5.224L492,20.233v14.77H233.105c-0.019,0-0.039,0-0.059,0h-39.2
			c-0.006,0-0.012,0-0.018,0h-39.23c-0.006,0-0.012,0-0.018,0H115.362z M171.008,212.003h-14.41h-4.728
			c-1.838-16.184,2.049-27.701,12.618-38.473c24.463-24.931,13.417-55.736,4.542-80.49c-5.13-14.307-10.015-27.939-7.819-38.039
			h18.968c-1.622,14.38,3.888,29.773,9.272,44.79c9.761,27.224,14.632,44.829,0.009,59.731
			C172.133,177.182,169.626,196.391,171.008,212.003z M125.24,173.531c20.898-21.297,15.881-46.879,8.443-69.314
			c-0.048-0.169-0.109-0.332-0.166-0.497c-1.22-3.655-2.497-7.227-3.735-10.679c-5.13-14.307-10.015-27.939-7.819-38.038h18.967
			c-1.621,14.379,3.889,29.771,9.273,44.789c9.761,27.224,14.632,44.83,0.008,59.732c-17.327,17.659-19.833,36.868-18.452,52.479
			H117.35h-4.729C110.784,195.82,114.671,184.303,125.24,173.531z M253.976,492.001H72.601L56.848,271.482l37.498,74.992
			c1.694,3.388,5.157,5.528,8.944,5.528h119.995c3.788,0,7.251-2.14,8.944-5.528l37.499-74.993L253.976,492.001z M235.093,232.003
			h32.014l-50.002,99.999H109.47l-50-99.999h44.645h13.238h26.01h13.237h26.011h13.237h26.01H235.093z M228.708,159.523
			c-17.327,17.659-19.834,36.868-18.453,52.48h-14.41h-4.729c-1.838-16.185,2.049-27.702,12.618-38.473
			c24.462-24.931,13.417-55.736,4.542-80.489c-5.13-14.308-10.015-27.94-7.819-38.039h18.967c-1.03,9.143,0.82,18.694,3.692,28.299
			c0.032,0.111,0.064,0.222,0.1,0.331c1.625,5.392,3.561,10.799,5.482,16.158C238.459,127.015,243.331,144.62,228.708,159.523z
			 M492,105.299l-242.079-5.502c-0.799-2.294-1.606-4.549-2.397-6.755c-0.301-0.84-0.601-1.678-0.899-2.513H492V105.299z"/>
	</g>
</g>
<g>
</g>
<g>
</g>
<g>
</g>
<g>
</g>
<g>
</g>
<g>
</g>
<g>
</g>
<g>
</g>
<g>
</g>
<g>
</g>
<g>
</g>
<g>
</g>
<g>
</g>
<g>
</g>
<g>
</g>
</svg>
