<?xml version="1.0" encoding="iso-8859-1"?>
<!-- Generator: Adobe Illustrator 19.0.0, SVG Export Plug-In . SVG Version: 6.00 Build 0)  -->
<svg version="1.1" id="Capa_1" xmlns="http://www.w3.org/2000/svg" xmlns:xlink="http://www.w3.org/1999/xlink" x="0px" y="0px"
	 viewBox="0 0 512.002 512.002" style="enable-background:new 0 0 512.002 512.002;" xml:space="preserve">
<g>
	<g>
		<path style="fill:#C77C74;" d="M242.49,160.277V10h-35l3.607,158.711C220.4,164.502,230.772,161.555,242.49,160.277z"/>
		<path style="fill:#C77C74;" d="M363.026,12.967l-44.481,166.006c9.544,6.887,17.82,15.193,25.3,24.236l52.989-181.184
			L363.026,12.967z"/>
	</g>
	<path style="fill:#FFFBEE;" d="M318.544,178.973C302.2,167.18,282.141,159.557,256,159.557c-4.695,0-9.194,0.246-13.511,0.721
		c-11.717,1.281-22.09,4.229-31.393,8.439v-0.006c-24.893,11.268-42.121,31.588-56.938,53.291h203.684
		c-4.406-6.455-9.025-12.787-13.998-18.793c-7.48-9.041-15.758-17.346-25.301-24.232L318.544,178.973z"/>
	<polygon style="fill:#F4D99D;" points="357.842,222.002 154.159,222.002 130.745,222.002 193.374,342.002 318.626,342.002 
		381.256,222.002 	"/>
	<polygon style="fill:#FF435F;" points="318.626,342.002 193.374,342.002 130.745,222.002 151.622,502.002 360.38,502.002 
		381.256,222.002 	"/>
</g>
<path d="M425.632,343.533l-34.745-124.225c-0.007-0.025-0.017-0.05-0.025-0.075c-0.025-0.084-0.056-0.165-0.083-0.248
	c-0.048-0.151-0.096-0.304-0.151-0.452c-0.054-0.145-0.11-0.285-0.169-0.426c-0.033-0.076-0.064-0.152-0.098-0.229
	c-0.04-0.087-0.081-0.174-0.123-0.26c-0.094-0.19-0.194-0.375-0.298-0.558c-0.043-0.075-0.079-0.154-0.124-0.229
	c-0.003-0.005-0.005-0.01-0.008-0.015c-0.016-0.026-0.036-0.049-0.052-0.074c-0.12-0.193-0.248-0.379-0.379-0.562
	c-0.063-0.087-0.122-0.176-0.188-0.261c-0.146-0.191-0.302-0.373-0.462-0.552c-0.049-0.056-0.092-0.116-0.143-0.171
	c-0.017-0.018-0.035-0.033-0.052-0.051c-0.083-0.088-0.169-0.172-0.255-0.257c-0.074-0.073-0.151-0.142-0.228-0.213
	c-0.011-0.011-0.022-0.021-0.034-0.032c-0.073-0.067-0.142-0.139-0.218-0.204c-0.133-0.114-0.272-0.22-0.411-0.327
	c-0.083-0.064-0.163-0.131-0.249-0.193c-0.045-0.032-0.088-0.068-0.133-0.101c-0.23-0.161-0.469-0.309-0.711-0.45
	c-0.043-0.025-0.084-0.056-0.128-0.08c-0.004-0.003-0.009-0.005-0.013-0.007c-0.285-0.16-0.578-0.306-0.877-0.436
	c-0.051-0.023-0.104-0.04-0.156-0.063c-0.099-0.041-0.199-0.076-0.301-0.115c-0.158-0.061-0.316-0.125-0.479-0.178
	c-0.097-0.031-0.195-0.054-0.293-0.082c-0.017-0.005-0.033-0.01-0.05-0.015c-0.102-0.028-0.202-0.06-0.305-0.085
	c-0.108-0.027-0.216-0.057-0.325-0.08c-0.098-0.021-0.198-0.034-0.297-0.053c-0.232-0.043-0.465-0.083-0.701-0.109
	c-0.103-0.012-0.207-0.017-0.309-0.024c-0.233-0.019-0.465-0.034-0.7-0.036c-0.035-0.001-0.069-0.006-0.104-0.006H363.07
	c-2.603-3.688-5.315-7.366-8.166-10.986l51.527-176.184c0.756-2.583,0.439-5.362-0.881-7.708c-1.319-2.346-3.528-4.062-6.129-4.758
	l-33.808-9.059c-5.335-1.43-10.817,1.737-12.247,7.071l-40.985,152.959c-15.439-8.464-33.853-13.781-56.381-13.781
	c-1.188,0-2.347,0.036-3.511,0.065V10c0-5.522-4.478-10-10-10h-35c-2.691,0-5.269,1.085-7.151,3.01
	c-1.881,1.925-2.907,4.526-2.846,7.218l3.464,152.393c-22.485,11.928-38.717,30.521-52.024,49.381h-18.188
	c-0.033,0-0.066,0.005-0.1,0.005c-0.24,0.003-0.478,0.018-0.716,0.037c-0.098,0.009-0.197,0.013-0.295,0.023
	c-0.24,0.027-0.476,0.067-0.713,0.111c-0.096,0.018-0.192,0.03-0.287,0.052c-0.11,0.023-0.219,0.053-0.328,0.08
	c-0.102,0.025-0.201,0.057-0.303,0.085c-0.018,0.005-0.036,0.01-0.054,0.016c-0.097,0.027-0.194,0.05-0.289,0.081
	c-0.162,0.053-0.319,0.117-0.479,0.178c-0.101,0.038-0.202,0.074-0.302,0.115c-0.053,0.022-0.105,0.04-0.157,0.063
	c-0.296,0.13-0.585,0.273-0.866,0.432c-0.008,0.004-0.016,0.007-0.023,0.012c-0.061,0.034-0.118,0.076-0.179,0.112
	c-0.223,0.132-0.444,0.267-0.656,0.416c-0.047,0.032-0.091,0.069-0.137,0.103c-0.087,0.063-0.17,0.132-0.254,0.198
	c-0.136,0.105-0.273,0.208-0.403,0.319c-0.08,0.07-0.154,0.146-0.232,0.219c-0.007,0.005-0.013,0.011-0.019,0.017
	c-0.078,0.073-0.158,0.144-0.234,0.22c-0.085,0.083-0.169,0.166-0.25,0.252c-0.018,0.019-0.037,0.034-0.055,0.053
	c-0.053,0.058-0.098,0.121-0.149,0.179c-0.156,0.176-0.309,0.354-0.452,0.541c-0.068,0.089-0.13,0.18-0.194,0.27
	c-0.13,0.181-0.256,0.363-0.374,0.554c-0.016,0.026-0.037,0.05-0.053,0.076c-0.003,0.005-0.005,0.01-0.008,0.015
	c-0.045,0.075-0.082,0.155-0.126,0.231c-0.103,0.182-0.203,0.364-0.295,0.554c-0.042,0.087-0.084,0.173-0.123,0.261
	c-0.035,0.076-0.066,0.152-0.099,0.229c-0.059,0.14-0.115,0.28-0.168,0.424c-0.056,0.149-0.104,0.301-0.152,0.453
	c-0.026,0.083-0.059,0.164-0.083,0.248c-0.008,0.025-0.019,0.05-0.025,0.075L86.37,343.533c-1.487,5.318,1.618,10.836,6.938,12.324
	c0.9,0.252,1.807,0.372,2.699,0.372c4.373,0,8.389-2.892,9.625-7.309l19.382-69.297l16.636,223.122
	c0.39,5.221,4.738,9.257,9.973,9.257H360.38c5.234,0,9.583-4.036,9.973-9.257l16.635-223.122l19.383,69.297
	c1.236,4.419,5.252,7.309,9.625,7.309c0.892,0,1.799-0.12,2.699-0.372C424.014,354.369,427.12,348.852,425.632,343.533z
	 M154.159,232.002h203.684h0.02h6.896l-52.191,100H199.435l-52.191-100L154.159,232.002L154.159,232.002z M370.097,25.214
	l14.267,3.823l-45.142,154.352c-3.053-2.976-6.144-5.73-9.289-8.281L370.097,25.214z M220.776,154.467L217.719,20h14.77v131.648
	c-0.34,0.064-0.677,0.137-1.016,0.203c-0.195,0.037-0.389,0.077-0.584,0.116c-2.901,0.581-5.76,1.269-8.57,2.061
	c-0.034,0.01-0.068,0.02-0.103,0.029C221.737,154.195,221.253,154.324,220.776,154.467z M256,169.557
	c35.314,0,58.522,15.497,76.579,35.876c0.029,0.034,0.061,0.066,0.09,0.101c0.449,0.508,0.892,1.021,1.334,1.534
	c0.527,0.613,1.055,1.232,1.582,1.864c0.851,1.015,1.693,2.036,2.522,3.07H173.895C192.737,188.48,216.979,169.557,256,169.557z
	 M351.098,492.002H160.904l-16.58-222.369l40.185,76.996c1.724,3.303,5.14,5.373,8.865,5.373h125.252
	c3.726,0,7.142-2.07,8.865-5.373l40.186-76.996L351.098,492.002z"/>
<path d="M262.285,450.639h-42.832c-5.522,0-10,4.478-10,10s4.478,10,10,10h42.832c5.522,0,10-4.478,10-10
	C272.285,455.116,267.807,450.639,262.285,450.639z"/>
<path d="M292.548,450.641h-0.299c-5.522,0-10,4.478-10,10s4.478,10,10,10h0.299c5.522,0,10-4.478,10-10
	C302.548,455.118,298.071,450.641,292.548,450.641z"/>
<path d="M245.935,182.893h-0.3c-5.523,0-10,4.478-10,10c0,5.523,4.477,10,10,10h0.3c5.522,0,10-4.477,10-10
	C255.935,187.37,251.458,182.893,245.935,182.893z"/>
<g>
</g>
<g>
</g>
<g>
</g>
<g>
</g>
<g>
</g>
<g>
</g>
<g>
</g>
<g>
</g>
<g>
</g>
<g>
</g>
<g>
</g>
<g>
</g>
<g>
</g>
<g>
</g>
<g>
</g>
</svg>
