<?xml version="1.0" encoding="iso-8859-1"?>
<!-- Generator: Adobe Illustrator 19.0.0, SVG Export Plug-In . SVG Version: 6.00 Build 0)  -->
<svg version="1.1" id="Layer_1" xmlns="http://www.w3.org/2000/svg" xmlns:xlink="http://www.w3.org/1999/xlink" x="0px" y="0px"
	 viewBox="0 0 355.874 355.874" style="enable-background:new 0 0 355.874 355.874;" xml:space="preserve">
<g>
	<g>
		<circle style="fill:#333E48;" cx="268.892" cy="245.022" r="78.853"/>
		<circle style="fill:#FFFFFF;" cx="268.892" cy="245.022" r="65.21"/>
		<g>
			<circle style="fill:#E94F3D;" cx="268.892" cy="245.022" r="36.253"/>
			<path style="fill:#00783E;" d="M232.638,245.023c0,2.33,0.229,4.605,0.648,6.813c5.196,5.68,12.645,9.264,20.95,9.264
				c15.696,0,28.42-12.723,28.42-28.418c0-10.037-5.213-18.838-13.066-23.895c-0.233-0.004-0.465-0.018-0.698-0.018
				C248.87,208.769,232.638,225.002,232.638,245.023z"/>
			<path style="fill:#FF8189;" d="M265.418,208.937c-2.719,5.836-4.246,12.336-4.246,19.199c0,20.531,13.594,37.881,32.269,43.555
				c7.194-6.623,11.703-16.119,11.703-26.668c0-20.021-16.23-36.254-36.252-36.254C267.719,208.769,266.562,208.83,265.418,208.937z
				"/>
		</g>
		<path style="fill:#D1D3D3;" d="M296.596,202.383c2.034,0,3.684-1.65,3.684-3.684c0-2.033-1.65-3.684-3.684-3.684h-5.968
			c-2.034,0-3.683,1.65-3.683,3.684c0,2.033,1.648,3.684,3.683,3.684H296.596z"/>
		<path style="fill:#D1D3D3;" d="M227.723,285.992c1.438,1.438,3.771,1.438,5.209,0c1.439-1.44,1.439-3.772,0-5.209l-4.22-4.219
			c-1.438-1.44-3.771-1.44-5.21,0c-1.438,1.438-1.438,3.77,0,5.207L227.723,285.992z"/>
		<path style="fill:#D1D3D3;" d="M296.046,294.043c1.438,1.439,3.771,1.439,5.209,0c1.439-1.438,1.439-3.77,0-5.209l-4.22-4.219
			c-1.438-1.439-3.771-1.439-5.208,0c-1.44,1.438-1.44,3.772,0,5.209L296.046,294.043z"/>
		<path style="fill:#D1D3D3;" d="M243.147,203.47c1.437-1.438,1.437-3.77,0-5.209c-1.439-1.439-3.772-1.438-5.21,0l-4.222,4.219
			c-1.438,1.439-1.438,3.773,0,5.211c1.439,1.438,3.773,1.438,5.212,0L243.147,203.47z"/>
		<path style="fill:#D1D3D3;" d="M327.297,242.039c0-2.033-1.649-3.684-3.684-3.684c-2.034,0-3.684,1.65-3.684,3.684v5.969
			c0,2.033,1.649,3.682,3.684,3.682c2.034,0,3.684-1.65,3.684-3.684V242.039z"/>
		<path style="fill:#D1D3D3;" d="M227.221,212.73c-1.438-1.436-3.771-1.436-5.209,0c-1.438,1.441-1.437,3.773,0,5.211l4.222,4.221
			c1.438,1.438,3.768,1.438,5.208,0c1.438-1.438,1.438-3.771,0-5.211L227.221,212.73z"/>
		<path style="fill:#D1D3D3;" d="M311.433,218.525c-1.439-1.438-3.772-1.438-5.209,0c-1.439,1.439-1.438,3.771,0,5.211l4.221,4.219
			c1.438,1.438,3.77,1.438,5.208,0s1.439-3.771,0-5.209L311.433,218.525z"/>
	</g>
	<g>
		<circle style="fill:#333E48;" cx="89.607" cy="245.022" r="78.853"/>
		<circle style="fill:#FFFFFF;" cx="89.607" cy="245.022" r="65.21"/>
		<g>
			<circle style="fill:#E94F3D;" cx="89.607" cy="245.022" r="36.253"/>
			<path style="fill:#00783E;" d="M53.354,245.023c0,2.33,0.228,4.605,0.648,6.813c5.195,5.68,12.646,9.264,20.95,9.264
				c15.695,0,28.42-12.723,28.42-28.418c0-10.037-5.212-18.838-13.066-23.895c-0.234-0.004-0.465-0.018-0.699-0.018
				C69.585,208.769,53.354,225.002,53.354,245.023z"/>
			<path style="fill:#FF8189;" d="M86.134,208.937c-2.719,5.836-4.246,12.336-4.246,19.199c0,20.531,13.593,37.881,32.269,43.555
				c7.193-6.623,11.703-16.119,11.703-26.668c0-20.021-16.23-36.254-36.253-36.254C88.434,208.769,87.278,208.83,86.134,208.937z"/>
		</g>
		<path style="fill:#D1D3D3;" d="M117.312,202.383c2.034,0,3.684-1.65,3.684-3.684c0-2.033-1.649-3.684-3.684-3.684h-5.968
			c-2.034,0-3.683,1.65-3.683,3.684c0,2.033,1.648,3.684,3.683,3.684H117.312z"/>
		<path style="fill:#D1D3D3;" d="M48.439,285.992c1.438,1.438,3.771,1.438,5.208,0c1.44-1.44,1.44-3.772,0-5.209l-4.22-4.219
			c-1.438-1.44-3.771-1.44-5.21,0c-1.438,1.438-1.438,3.77,0,5.207L48.439,285.992z"/>
		<path style="fill:#D1D3D3;" d="M116.762,294.043c1.438,1.439,3.77,1.439,5.209,0c1.439-1.438,1.438-3.77,0-5.209l-4.22-4.219
			c-1.438-1.439-3.771-1.439-5.209,0c-1.439,1.438-1.439,3.772,0,5.209L116.762,294.043z"/>
		<path style="fill:#D1D3D3;" d="M63.862,203.47c1.436-1.438,1.436-3.77,0-5.209c-1.439-1.439-3.771-1.438-5.21,0l-4.221,4.219
			c-1.438,1.439-1.438,3.773,0,5.211c1.439,1.438,3.771,1.438,5.211,0L63.862,203.47z"/>
		<path style="fill:#D1D3D3;" d="M148.013,242.039c0-2.033-1.649-3.684-3.684-3.684c-2.034,0-3.684,1.65-3.684,3.684v5.969
			c0,2.033,1.649,3.682,3.683,3.682c2.035,0,3.684-1.65,3.684-3.684v-5.967H148.013z"/>
		<path style="fill:#D1D3D3;" d="M47.937,212.73c-1.439-1.436-3.771-1.436-5.209,0c-1.439,1.441-1.438,3.773,0,5.211l4.221,4.221
			c1.438,1.438,3.77,1.438,5.209,0c1.438-1.438,1.438-3.771,0-5.211L47.937,212.73z"/>
		<path style="fill:#D1D3D3;" d="M132.148,218.525c-1.438-1.438-3.77-1.438-5.209,0c-1.439,1.439-1.438,3.771,0,5.211l4.221,4.219
			c1.439,1.438,3.77,1.438,5.208,0c1.439-1.438,1.439-3.771,0-5.209L132.148,218.525z"/>
	</g>
	<g>
		<path style="fill:#B3874F;" d="M350.019,128.65c2.423,0.15,4.326,2.254,4.231,4.682l-0.226,5.695
			c-0.095,2.424-2.159,4.375-4.585,4.332l-345.2-5.945c-2.426-0.043-4.332-2.061-4.236-4.484l0.843-21.393
			c0.096-2.426,2.155-4.287,4.58-4.139L350.019,128.65z"/>
		<path style="fill:#997443;" d="M71.219,130.052c-8.361,0.648-15.431,4.053-21.115,8.15l5.945,0.102
			c4.466-2.572,9.623-4.502,15.426-4.953c7.428-0.578,15.127,1.318,23.017,5.615l6.583,0.115
			C90.886,132.347,80.881,129.304,71.219,130.052z M326.968,142.972l5.382,0.094c5.456-3.641,12.969-6.982,21.746-5.828l0.132-3.336
			C345.276,132.834,336.159,135.861,326.968,142.972z M58.209,110.654l-7.35-0.453c-15.366,6.529-33.481,13.602-50.53,14.453
			l-0.131,3.328c19.782-0.91,40.685-9.881,57.459-17.09C57.842,110.812,58.024,110.734,58.209,110.654z M161.557,125.015
			c6.597,0,13.632-2.248,21.032-6.691l-6.23-0.383c-5.929,2.85-11.533,4.096-16.762,3.69c-5.556-0.434-10.263-2.674-14.261-5.604
			l-5.655-0.348c5.068,4.613,11.467,8.613,19.659,9.25C160.075,124.986,160.813,125.015,161.557,125.015z M78.557,119.588
			c-20.6-2.439-38.087,9.506-49.659,17.406c-0.409,0.281-0.809,0.553-1.207,0.822l5.738,0.1c11.101-7.494,26.86-17.15,44.74-15.043
			c14.109,1.666,25.306,7.904,36.134,13.94c1.566,0.873,3.119,1.736,4.665,2.578l7.422,0.127c-3.455-1.686-6.93-3.619-10.477-5.596
			C105.323,128.019,93.318,121.33,78.557,119.588z M324.571,127.08c-13.866,7.063-35.482,12.506-57.732-3.559l-5.524-0.342
			c10.569,8.422,23.403,14.066,37.532,14.066c10.137,0,20.939-2.91,32.041-9.775L324.571,127.08z M233.24,128.775
			c-18.69-7.285-32.09,2.168-41.795,11.863l4.671,0.08c8.92-8.287,20.38-14.918,35.921-8.861c6.333,2.469,12.911,5.342,19.271,8.121
			c1.351,0.59,2.695,1.178,4.035,1.76l8.758,0.15c-3.811-1.598-7.65-3.273-11.467-4.941
			C246.242,134.154,239.633,131.265,233.24,128.775z M203.209,119.595l-5.695-0.352c-0.651,0.426-1.304,0.857-1.964,1.293
			c-6.299,4.164-13.439,8.885-24.026,10.912c-18.321,3.512-37.729-7.75-51.057-16.955l-6.289-0.387
			c12.008,8.635,30.996,21.309,50.261,21.309c2.569,0,5.144-0.227,7.708-0.717c11.237-2.152,18.671-7.066,25.229-11.402
			C199.384,121.969,201.296,120.711,203.209,119.595z"/>
	</g>
	<g>
		<path style="fill:#B3874F;" d="M352.269,101.398c2.378,0.486,3.967,2.838,3.533,5.227l-1.021,5.607
			c-0.435,2.389-2.75,4.031-5.147,3.649L8.67,61.64c-2.396-0.383-4.001-2.646-3.566-5.033l3.831-21.063
			c0.434-2.389,2.733-3.943,5.113-3.455L352.269,101.398z"/>
		<path style="fill:#997443;" d="M76.021,63.734c-8.37-0.527-15.846,1.853-22.049,5.113l5.873,0.936
			c4.781-1.924,10.159-3.111,15.968-2.744c7.434,0.467,14.793,3.424,22.003,8.783l6.502,1.033
			C95.172,68.763,85.694,64.347,76.021,63.734z M327.438,112.351l5.318,0.846c5.91-2.84,13.818-5.096,22.347-2.725l0.598-3.285
			C346.987,104.875,337.537,106.595,327.438,112.351z M65.856,42.705l-7.214-1.479c-16.129,4.313-35.057,8.777-52.056,7.232
			l-0.597,3.277c19.715,1.871,41.667-4.084,59.287-8.873C65.471,42.81,65.662,42.76,65.856,42.705z M166.174,71.4
			c6.531,0.924,13.813-0.316,21.762-3.678l-6.113-1.252c-6.27,1.99-11.994,2.439-17.114,1.303c-5.44-1.205-9.787-4.082-13.336-7.543
			l-5.55-1.139c4.372,5.279,10.146,10.137,18.169,11.914C164.71,71.164,165.437,71.295,166.174,71.4z M84.752,54.4
			c-20.053-5.299-39.043,4.078-51.606,10.279c-0.445,0.221-0.879,0.434-1.312,0.646l5.668,0.902
			c12.041-5.865,28.998-13.221,46.406-8.629c13.737,3.627,23.949,11.371,33.825,18.861c1.429,1.086,2.846,2.158,4.258,3.207
			l7.33,1.166c-3.185-2.152-6.354-4.553-9.589-7.006C110.073,66.498,99.124,58.193,84.752,54.4z M327.29,96.279
			c-14.717,5.049-36.882,7.412-56.663-11.611l-5.423-1.111c9.286,9.818,21.204,17.205,35.194,19.184
			c10.034,1.42,21.14,0.053,33.093-5.189L327.29,96.279z M236.623,85.164c-17.485-9.83-32.077-2.348-43.043,5.893l4.613,0.734
			c9.991-6.955,22.268-11.918,36.809-3.742c5.924,3.33,12.034,7.096,17.943,10.74c1.254,0.773,2.504,1.543,3.747,2.307l8.652,1.377
			c-3.549-2.117-7.118-4.316-10.663-6.502C248.746,92.31,242.604,88.525,236.623,85.164z M208.174,71.869l-5.589-1.145
			c-0.705,0.328-1.411,0.664-2.127,1.002c-6.819,3.242-14.55,6.916-25.317,7.439c-18.634,0.914-36.273-12.957-48.179-23.939
			l-6.173-1.262c10.68,10.231,27.705,25.44,46.78,28.139c2.544,0.357,5.125,0.496,7.732,0.369
			c11.429-0.557,19.477-4.381,26.578-7.756C204.056,73.681,206.125,72.705,208.174,71.869z"/>
	</g>
</g>
<g>
</g>
<g>
</g>
<g>
</g>
<g>
</g>
<g>
</g>
<g>
</g>
<g>
</g>
<g>
</g>
<g>
</g>
<g>
</g>
<g>
</g>
<g>
</g>
<g>
</g>
<g>
</g>
<g>
</g>
</svg>
