<?xml version="1.0" encoding="iso-8859-1"?>
<!-- Generator: Adobe Illustrator 19.0.0, SVG Export Plug-In . SVG Version: 6.00 Build 0)  -->
<svg version="1.1" id="Capa_1" xmlns="http://www.w3.org/2000/svg" xmlns:xlink="http://www.w3.org/1999/xlink" x="0px" y="0px"
	 viewBox="0 0 418.113 418.113" style="enable-background:new 0 0 418.113 418.113;" xml:space="preserve">
<g>
	<g>
		<path d="M406.141,292.673l-88.576-93.696L239.229,3.393c-1.024-2.56-4.096-4.096-6.656-3.072c-2.56,1.024-4.096,4.096-3.072,6.656
			l68.608,172.032L148.093,20.801c-2.048-2.048-5.12-2.048-7.168,0c-2.048,2.048-2.048,5.12,0,7.168l167.936,177.152l67.584,169.984
			c1.024,2.048,2.56,3.072,4.608,3.072c0.512,0,1.024,0,2.048-0.512c2.56-1.024,4.096-4.096,3.072-6.656l-58.368-146.432
			l71.168,74.752c1.024,1.024,2.56,1.536,3.584,1.536s2.56-0.512,3.584-1.536C407.677,297.793,408.189,294.721,406.141,292.673z"/>
	</g>
</g>
<g>
	<g>
		<path d="M96.381,268.097c-20.992,0-38.4,17.408-38.4,38.4s17.408,38.4,38.4,38.4s38.4-17.408,38.4-38.4
			S117.885,268.097,96.381,268.097z M74.365,323.905c-3.584-4.608-6.144-10.752-6.144-17.408s2.56-12.8,6.144-17.408V323.905z
			 M91.261,334.145c-2.56-0.512-4.608-1.024-6.656-2.048v-51.2c2.048-1.024,4.096-1.536,6.656-2.048V334.145z M108.157,332.097
			c-2.048,1.024-4.096,1.536-6.656,2.048v-55.296c2.56,0.512,4.608,1.024,6.656,2.048V332.097z M118.397,323.905v-34.816
			c3.584,4.608,6.144,10.752,6.144,17.408C125.053,313.153,122.493,319.297,118.397,323.905z"/>
	</g>
</g>
<g>
	<g>
		<path d="M257.661,189.249l-43.52-43.52c-7.168-7.168-16.896-11.264-27.136-11.264s-19.968,4.096-27.136,11.264l-44.032,43.52
			c-12.8,12.8-14.848,33.28-4.608,48.128H65.661c-20.992,0-37.888,16.896-37.888,37.888v61.952
			c0,20.992,16.896,37.888,37.888,37.888h61.952c20.992,0,37.888-16.896,37.888-37.888v-45.568
			c6.144,4.096,13.312,6.144,20.992,6.144c10.24,0,19.968-4.096,27.136-11.264l44.032-43.52
			C272.509,228.161,272.509,204.097,257.661,189.249z M155.261,337.217L155.261,337.217c0,15.36-12.288,27.648-27.648,27.648H65.661
			c-15.36,0-27.648-12.288-27.648-27.648v-61.44c0-15.36,12.288-27.648,27.648-27.648h61.952c15.36,0,27.648,12.288,27.648,27.648
			V337.217z M250.493,236.353l-43.52,43.52c-5.632,5.12-12.8,8.192-19.968,8.192c-7.68,0-14.336-3.072-19.968-8.192l-1.536-1.536
			v-2.56c0-20.992-16.896-37.888-37.888-37.888h-2.56l-1.536-1.536c-10.752-10.752-10.752-28.672,0-39.424l43.52-43.52
			c5.12-5.12,12.288-8.192,19.968-8.192s14.336,3.072,19.968,8.192l43.52,43.52C261.245,207.681,261.245,225.601,250.493,236.353z"
			/>
	</g>
</g>
<g>
	<g>
		<path d="M214.141,189.249c-15.36-15.36-39.424-15.36-54.272,0c-7.168,7.168-11.264,16.896-11.264,27.136
			s4.096,19.968,11.264,27.136c7.168,7.168,16.896,11.264,27.136,11.264s19.968-4.096,27.136-11.264
			c7.168-7.168,11.264-16.896,11.264-27.136S221.309,196.417,214.141,189.249z M167.037,236.353
			c-4.608-4.608-7.168-10.24-8.192-16.384l24.576,24.576C177.277,243.521,171.645,240.961,167.037,236.353z M196.733,242.497
			l-36.352-36.352c1.024-2.048,2.048-4.096,3.072-6.144l39.424,39.424C200.829,240.961,198.781,241.985,196.733,242.497z
			 M210.045,232.257l-38.912-38.912c2.048-1.536,4.096-2.56,6.144-3.072l36.352,36.352
			C212.605,228.161,211.581,230.209,210.045,232.257z M190.077,188.225c6.144,0.512,11.776,3.072,16.384,7.68
			c4.608,4.608,7.168,10.24,8.192,16.384L190.077,188.225z"/>
	</g>
</g>
<g>
	<g>
		<path d="M124.029,95.041L92.285,63.297c-11.264-11.264-29.696-11.264-41.472,0L19.069,95.041
			c-11.264,11.264-11.264,29.696,0,41.472l31.744,31.744c6.144,5.632,13.312,8.704,20.992,8.704s14.848-3.072,20.48-8.704
			l31.744-31.744C135.293,125.249,135.293,106.817,124.029,95.041z M116.349,129.345l-31.232,31.744
			c-7.168,7.168-19.456,7.168-26.624,0l-31.744-31.744c-7.68-7.68-7.68-19.456-0.512-26.624l31.744-31.744
			c3.584-3.584,8.704-5.632,13.312-5.632c4.608,0,9.728,2.048,13.312,5.632l31.744,31.744
			C123.517,109.889,123.517,122.177,116.349,129.345z"/>
	</g>
</g>
<g>
	<g>
		<path d="M92.285,95.041c-5.632-5.632-12.8-8.704-20.992-8.704c-7.68,0-15.36,3.072-20.992,8.704
			c-11.264,11.264-11.264,30.208,0,41.472c5.632,5.632,12.8,8.704,20.992,8.704c8.192,0,15.872-3.072,20.992-8.704
			C103.549,125.249,103.549,106.305,92.285,95.041z M57.981,102.209c3.584-3.584,8.192-5.632,13.312-5.632
			c3.584,0,6.656,1.024,9.216,2.56l-26.112,26.112C50.813,118.081,51.837,108.353,57.981,102.209z M85.629,129.345
			c-6.144,6.144-15.872,7.168-23.04,3.072l26.112-26.112C92.797,113.473,91.773,123.201,85.629,129.345z"/>
	</g>
</g>
<g>
	<g>
		<path d="M310.397,336.193l-31.232-31.744c-11.264-11.264-29.696-11.264-41.472,0l-31.744,31.744
			c-11.264,11.264-11.264,29.696,0,41.472l31.744,31.744c5.632,5.632,13.312,8.704,20.48,8.704c7.68,0,14.848-3.072,20.48-8.704
			l31.744-31.744C321.661,366.401,321.661,347.969,310.397,336.193z M303.741,370.497l-31.744,31.744
			c-7.168,7.168-19.456,7.168-26.624,0l-31.744-31.744c-7.168-7.168-7.168-19.456,0-26.624l31.744-31.744
			c3.584-3.584,8.704-5.632,13.312-5.632c4.608,0,9.728,2.048,13.312,5.632l31.744,31.744
			C311.421,351.041,311.421,362.817,303.741,370.497z"/>
	</g>
</g>
<g>
	<g>
		<path d="M279.677,336.705c-11.776-11.776-30.208-11.776-41.984-0.512c-5.632,5.632-8.704,12.8-8.704,20.992
			c0,7.68,3.072,15.36,8.704,20.992c5.632,5.632,13.312,8.704,20.992,8.704c7.68,0,14.848-3.072,20.992-8.704
			C290.941,366.913,290.941,347.969,279.677,336.705z M239.741,357.185c0-5.12,2.048-9.728,5.632-13.312
			c3.584-3.584,8.704-5.632,13.312-5.632c3.072,0,6.656,1.024,9.216,2.56l-26.112,26.112
			C240.253,363.329,239.741,360.257,239.741,357.185z M271.997,370.497c-6.144,6.144-15.36,7.168-23.04,3.072l26.112-26.112
			C279.165,354.625,278.141,364.353,271.997,370.497z"/>
	</g>
</g>
<g>
</g>
<g>
</g>
<g>
</g>
<g>
</g>
<g>
</g>
<g>
</g>
<g>
</g>
<g>
</g>
<g>
</g>
<g>
</g>
<g>
</g>
<g>
</g>
<g>
</g>
<g>
</g>
<g>
</g>
</svg>
