<?xml version="1.0" encoding="iso-8859-1"?>
<!-- Generator: Adobe Illustrator 18.0.0, SVG Export Plug-In . SVG Version: 6.00 Build 0)  -->
<!DOCTYPE svg PUBLIC "-//W3C//DTD SVG 1.1//EN" "http://www.w3.org/Graphics/SVG/1.1/DTD/svg11.dtd">
<svg version="1.1" id="Capa_1" xmlns="http://www.w3.org/2000/svg" xmlns:xlink="http://www.w3.org/1999/xlink" x="0px" y="0px"
	 viewBox="0 0 395 395" style="enable-background:new 0 0 395 395;" xml:space="preserve">
<g>
	<path d="M313.002,0H82C36.785,0,0,36.784,0,81.998v230.993C0,358.211,36.785,395,82,395h231.002
		C358.216,395,395,358.211,395,312.991V81.998C395,36.784,358.216,0,313.002,0z M380,312.991C380,349.94,349.944,380,313.002,380H82
		c-36.944,0-67-30.06-67-67.009V81.998C15,45.055,45.056,15,82,15h231.002C349.944,15,380,45.055,380,81.998V312.991z"/>
	<path d="M299.762,196.528c-14.764-7.353-31.205-12.152-48.328-14.197c-11.035-9.471-30.885-25.258-40.582-25.258
		c-1.033,0-2.011,0.148-2.908,0.442c-11.262,3.69-15.594,18.826-16.05,20.54c-0.355,1.331-0.146,2.75,0.58,3.92
		c0.726,1.171,1.901,1.991,3.251,2.267l3.169,0.646c-13.192,2.996-25.544,7.777-36.601,14.253
		c-12.043,7.052-22.186,15.981-30.187,26.424c-1.304,0.06-2.618,0.098-3.959,0.098c-5.859,0-12.45-0.529-21.371-1.717
		c-5.524-0.735-10.514-1.092-15.251-1.092c-14.704,0-27.547,3.461-42.941,11.572c-2.028,1.068-3.07,3.379-2.526,5.607
		c0.542,2.227,2.53,3.8,4.822,3.816c19.169,0.133,28.884,10.467,41.551,25.005c-4.737,26.326,8.976,50.255,9.58,51.291
		c0.753,1.292,2.045,2.179,3.521,2.418c0.267,0.043,0.533,0.065,0.799,0.065c1.208,0,2.386-0.438,3.305-1.248
		c20.744-18.274,31.31-34.959,39.798-51.843c21.685,5.251,43.248,8.294,64.465,9.087l-1.645,0.633
		c-1.286,0.495-2.311,1.498-2.832,2.773c-0.522,1.275-0.494,2.708,0.076,3.962c0.733,1.615,7.512,15.828,19.227,17.602
		c0.422,0.063,0.858,0.096,1.299,0.096c3.895,0,10.433-2.206,26.518-19.412c2.626-2.809,5.118-5.601,7.312-8.124
		c29.646-4.197,57.328-13.305,82.646-27.242c2.401-1.322,3.291-4.331,1.994-6.746C338.238,223.08,321.388,207.298,299.762,196.528z
		 M317.182,224.726c-0.102,0.268-0.334,0.47-0.653,0.565l-6.559,1.982l3.623,5.815c0.176,0.282,0.219,0.589,0.117,0.857
		c-0.102,0.268-0.334,0.469-0.654,0.565c-0.32,0.097-0.688,0.077-1.039-0.055c-0.352-0.134-0.643-0.363-0.82-0.645l-3.623-5.817
		l-6.559,1.982c-0.641,0.191-1.505-0.133-1.858-0.702c-0.177-0.281-0.219-0.588-0.117-0.857c0.1-0.268,0.333-0.469,0.652-0.565
		l6.56-1.982l-3.623-5.814c-0.177-0.283-0.218-0.59-0.117-0.857c0.102-0.268,0.334-0.47,0.654-0.566
		c0.32-0.097,0.689-0.076,1.04,0.054c0.352,0.135,0.643,0.361,0.819,0.646l3.623,5.816l6.559-1.982
		c0.639-0.19,1.505,0.136,1.859,0.702C317.241,224.15,317.282,224.458,317.182,224.726z"/>
	<path d="M62.242,110.722h67.129V77.37H62.242c-8.77,0-15.879,7.112-15.879,15.883v1.587
		C46.363,103.609,53.473,110.722,62.242,110.722z"/>
	<path d="M348.637,77.37h-213.31v43c0,0,128.61,0,162.492,0C331.696,120.37,348.637,77.37,348.637,77.37z"/>
</g>
<g>
</g>
<g>
</g>
<g>
</g>
<g>
</g>
<g>
</g>
<g>
</g>
<g>
</g>
<g>
</g>
<g>
</g>
<g>
</g>
<g>
</g>
<g>
</g>
<g>
</g>
<g>
</g>
<g>
</g>
</svg>
