<?xml version="1.0" encoding="iso-8859-1"?>
<!-- Generator: Adobe Illustrator 19.0.0, SVG Export Plug-In . SVG Version: 6.00 Build 0)  -->
<svg version="1.1" id="Capa_1" xmlns="http://www.w3.org/2000/svg" xmlns:xlink="http://www.w3.org/1999/xlink" x="0px" y="0px"
	 viewBox="0 0 512 512" style="enable-background:new 0 0 512 512;" xml:space="preserve">
<path d="M454.89,491.279c-0.65,0-1.31-0.06-1.95-0.19s-1.27-0.32-1.87-0.57c-0.61-0.25-1.19-0.56-1.73-0.92
	c-0.55-0.37-1.06-0.789-1.52-1.25c-0.46-0.46-0.88-0.97-1.24-1.52c-0.36-0.54-0.67-1.12-0.92-1.72c-0.25-0.61-0.44-1.24-0.57-1.87
	c-0.13-0.65-0.2-1.3-0.2-1.96c0-0.65,0.07-1.31,0.2-1.95s0.32-1.27,0.57-1.87s0.56-1.19,0.92-1.73c0.36-0.54,0.78-1.06,1.24-1.52
	s0.97-0.88,1.52-1.24c0.54-0.36,1.12-0.67,1.73-0.92c0.6-0.25,1.23-0.44,1.87-0.57c1.29-0.26,2.62-0.26,3.91,0
	c0.64,0.13,1.26,0.32,1.87,0.57c0.6,0.25,1.18,0.56,1.72,0.92c0.55,0.36,1.06,0.78,1.52,1.24c0.47,0.46,0.88,0.98,1.25,1.52
	c0.36,0.54,0.67,1.13,0.92,1.73s0.44,1.23,0.57,1.87c0.13,0.64,0.19,1.3,0.19,1.95c0,0.66-0.06,1.31-0.19,1.96
	c-0.13,0.63-0.32,1.26-0.57,1.87c-0.25,0.6-0.56,1.18-0.92,1.72c-0.37,0.55-0.78,1.06-1.25,1.52
	C460.1,490.219,457.52,491.279,454.89,491.279z"/>
<path d="M502,40.719c-0.65,0-1.31-0.07-1.95-0.2s-1.27-0.32-1.87-0.57c-0.61-0.25-1.19-0.56-1.73-0.92
	c-0.55-0.36-1.06-0.78-1.52-1.24c-0.46-0.46-0.88-0.98-1.24-1.52s-0.67-1.13-0.92-1.73s-0.45-1.23-0.57-1.87
	c-0.13-0.64-0.2-1.3-0.2-1.95c0-0.66,0.07-1.31,0.2-1.96c0.12-0.64,0.32-1.26,0.57-1.87c0.25-0.6,0.56-1.18,0.92-1.72
	c0.36-0.55,0.78-1.06,1.24-1.53c0.46-0.46,0.97-0.87,1.52-1.24c0.54-0.36,1.12-0.67,1.73-0.92c0.6-0.25,1.23-0.44,1.87-0.57
	c3.25-0.65,6.7,0.41,9.02,2.73c0.46,0.47,0.88,0.98,1.24,1.53c0.36,0.54,0.67,1.12,0.92,1.72c0.25,0.61,0.45,1.23,0.58,1.87
	c0.13,0.65,0.19,1.3,0.19,1.96c0,2.63-1.07,5.2-2.93,7.07c-0.46,0.46-0.97,0.88-1.52,1.24c-0.54,0.36-1.12,0.67-1.72,0.92
	c-0.61,0.25-1.24,0.44-1.88,0.57C503.31,40.649,502.65,40.719,502,40.719z"/>
<path d="M496.247,57.616c-5.402-1.155-10.715,2.287-11.87,7.688l-19.483,91.094V30.82c0-5.523-4.477-10-10-10s-10,4.477-10,10
	v219.089l-46.885,219.216c-1.155,5.4,2.287,10.715,7.687,11.87c0.705,0.151,1.408,0.223,2.101,0.223
	c4.616,0,8.765-3.215,9.769-7.911l27.328-127.773v98.239c0,5.523,4.477,10,10,10s10-4.477,10-10v-191.75l39.04-182.537
	C505.089,64.086,501.647,58.771,496.247,57.616z"/>
<path style="fill:#296B94;" d="M146.272,239.18H46.249C26.229,239.18,10,222.95,10,202.93V102.908
	c0-20.02,16.229-36.249,36.249-36.249h100.023c20.02,0,36.249,16.229,36.249,36.249V202.93
	C182.522,222.95,166.292,239.18,146.272,239.18z"/>
<path d="M146.272,249.18H46.249C20.748,249.18,0,228.433,0,202.931V102.908c0-25.502,20.748-46.249,46.249-46.249h100.023
	c25.502,0,46.249,20.747,46.249,46.249v100.023C192.521,228.433,171.774,249.18,146.272,249.18z M46.249,76.658
	C31.775,76.658,20,88.434,20,102.908v100.023c0,14.474,11.775,26.25,26.249,26.25h100.023c14.474,0,26.249-11.775,26.249-26.25
	V102.908c0-14.474-11.775-26.249-26.249-26.249L46.249,76.658L46.249,76.658z"/>
<path style="fill:#98E1E2;" d="M43.767,189.291v-72.743c0-8.904,7.218-16.122,16.122-16.122h72.743
	c8.904,0,16.122,7.218,16.122,16.122v72.743c0,8.904-7.218,16.122-16.122,16.122H59.889
	C50.985,205.413,43.767,198.195,43.767,189.291z"/>
<path d="M132.632,215.413H59.889c-14.404,0-26.122-11.718-26.122-26.122v-72.743c0-14.404,11.718-26.122,26.122-26.122h72.743
	c14.404,0,26.122,11.718,26.122,26.122v72.743C158.754,203.694,147.036,215.413,132.632,215.413z M59.889,110.425
	c-3.375,0-6.122,2.747-6.122,6.122v72.743c0,3.376,2.747,6.122,6.122,6.122h72.743c3.376,0,6.122-2.747,6.122-6.122v-72.743
	c0-3.375-2.747-6.122-6.122-6.122C132.632,110.425,59.889,110.425,59.889,110.425z"/>
<path style="fill:#FD7555;" d="M76.48,152.919L76.48,152.919c0-10.925,8.856-19.781,19.78-19.781l0,0
	c10.924,0,19.78,8.856,19.78,19.78v0.001c0,10.924-8.856,19.78-19.78,19.78l0,0C85.336,172.7,76.48,163.844,76.48,152.919z"/>
<path d="M96.261,182.7c-16.421,0-29.781-13.359-29.781-29.78s13.359-29.781,29.78-29.781s29.781,13.359,29.781,29.781
	S112.682,182.7,96.261,182.7z M96.261,143.138c-5.393,0-9.781,4.388-9.781,9.781v0.001c0,5.393,4.387,9.78,9.78,9.78
	s9.781-4.387,9.781-9.78C106.041,147.526,101.654,143.138,96.261,143.138z"/>
<path style="fill:#975D50;" d="M299.046,239.18L299.046,239.18c-47.641,0-86.261-38.62-86.261-86.261l0,0
	c0-47.641,38.62-86.261,86.261-86.261l0,0c47.641,0,86.261,38.62,86.261,86.261l0,0C385.307,200.56,346.686,239.18,299.046,239.18z"
	/>
<path d="M299.046,249.18c-53.078,0-96.261-43.183-96.261-96.261s43.183-96.261,96.261-96.261s96.261,43.182,96.261,96.261
	S352.124,249.18,299.046,249.18z M299.046,76.658c-42.05,0-76.261,34.21-76.261,76.261s34.21,76.261,76.261,76.261
	s76.261-34.211,76.261-76.261S341.096,76.658,299.046,76.658z"/>
<path style="fill:#F7CD95;" d="M246.552,152.919L246.552,152.919c0-28.992,23.502-52.494,52.494-52.494l0,0
	c28.992,0,52.494,23.502,52.494,52.494l0,0c0,28.991-23.502,52.494-52.494,52.494l0,0
	C270.054,205.413,246.552,181.91,246.552,152.919z"/>
<path d="M299.046,215.413c-34.46,0-62.494-28.035-62.494-62.494s28.035-62.494,62.494-62.494s62.494,28.035,62.494,62.494
	S333.505,215.413,299.046,215.413z M299.046,110.425c-23.431,0-42.494,19.063-42.494,42.494s19.063,42.494,42.494,42.494
	s42.494-19.063,42.494-42.494C341.54,129.488,322.477,110.425,299.046,110.425z"/>
<path style="fill:#FDA162;" d="M279.265,152.919L279.265,152.919c0-10.925,8.856-19.781,19.78-19.781l0,0
	c10.924,0,19.78,8.856,19.78,19.78v0.001c0,10.924-8.856,19.78-19.78,19.78l0,0C288.121,172.7,279.265,163.844,279.265,152.919z"/>
<path d="M299.045,182.7c-16.421,0-29.78-13.359-29.78-29.78s13.359-29.781,29.78-29.781s29.781,13.359,29.781,29.781
	S315.467,182.7,299.045,182.7z M299.045,143.138c-5.393,0-9.78,4.388-9.78,9.781v0.001c0,5.393,4.387,9.78,9.78,9.78
	s9.781-4.387,9.781-9.78C308.826,147.526,304.438,143.138,299.045,143.138z"/>
<path style="fill:#296B94;" d="M249.034,272.819h100.023c20.02,0,36.249,16.229,36.249,36.25v100.023
	c0,20.02-16.229,36.249-36.249,36.249H249.034c-20.02,0-36.249-16.229-36.249-36.249V309.069
	C212.785,289.049,229.014,272.819,249.034,272.819z"/>
<path d="M349.057,455.341H249.035c-25.502,0-46.249-20.748-46.249-46.249V309.069c0-25.502,20.747-46.249,46.249-46.249h100.022
	c25.502,0,46.249,20.748,46.249,46.249v100.023C395.307,434.593,374.559,455.341,349.057,455.341z M249.035,282.819
	c-14.474,0-26.249,11.775-26.249,26.249v100.023c0,14.474,11.775,26.249,26.249,26.249h100.022
	c14.474,0,26.249-11.775,26.249-26.249V309.069c0-14.474-11.775-26.249-26.249-26.249H249.035V282.819z"/>
<path style="fill:#98E1E2;" d="M351.54,322.708v72.743c0,8.904-7.218,16.122-16.122,16.122h-72.743
	c-8.904,0-16.122-7.218-16.122-16.122v-72.743c0-8.904,7.218-16.122,16.122-16.122h72.743
	C344.322,306.586,351.54,313.804,351.54,322.708z"/>
<path d="M335.417,421.574h-72.743c-14.404,0-26.122-11.718-26.122-26.122v-72.743c0-14.404,11.718-26.122,26.122-26.122h72.743
	c14.404,0,26.122,11.718,26.122,26.122v72.743C361.54,409.855,349.821,421.574,335.417,421.574z M262.674,316.586
	c-3.375,0-6.122,2.747-6.122,6.122v72.743c0,3.375,2.747,6.122,6.122,6.122h72.743c3.376,0,6.122-2.747,6.122-6.122v-72.743
	c0-3.375-2.747-6.122-6.122-6.122H262.674z"/>
<path style="fill:#FD7555;" d="M318.827,359.08L318.827,359.08c0,10.925-8.856,19.781-19.78,19.781l0,0
	c-10.924,0-19.78-8.856-19.78-19.78l0,0c0-10.924,8.856-19.78,19.78-19.78l0,0C309.971,339.299,318.827,348.155,318.827,359.08z"/>
<path d="M299.046,388.861c-16.421,0-29.781-13.359-29.781-29.78s13.359-29.781,29.78-29.781s29.781,13.359,29.781,29.78
	C328.827,375.501,315.467,388.861,299.046,388.861z M299.046,349.299c-5.393,0-9.781,4.387-9.781,9.78s4.387,9.781,9.78,9.781
	s9.781-4.387,9.781-9.78v-0.001C308.827,353.686,304.439,349.299,299.046,349.299z"/>
<path style="fill:#975D50;" d="M96.261,272.819L96.261,272.819c47.641,0,86.261,38.62,86.261,86.261l0,0
	c0,47.641-38.62,86.261-86.261,86.261l0,0C48.62,445.341,10,406.72,10,359.08l0,0C10,311.439,48.62,272.819,96.261,272.819z"/>
<path d="M96.261,455.341C43.183,455.341,0,412.158,0,359.08s43.183-96.261,96.261-96.261s96.261,43.183,96.261,96.261
	C192.521,412.158,149.339,455.341,96.261,455.341z M96.261,282.819C54.21,282.819,20,317.03,20,359.08s34.21,76.261,76.261,76.261
	s76.261-34.21,76.261-76.261S138.311,282.819,96.261,282.819z"/>
<path style="fill:#F7CD95;" d="M148.755,359.08L148.755,359.08c0,28.992-23.502,52.494-52.494,52.494l0,0
	c-28.992,0-52.494-23.502-52.494-52.494l0,0c0-28.992,23.502-52.494,52.494-52.494l0,0
	C125.252,306.586,148.755,330.088,148.755,359.08z"/>
<path d="M96.261,421.574c-34.459,0-62.494-28.035-62.494-62.494s28.035-62.494,62.494-62.494c34.46,0,62.494,28.035,62.494,62.494
	S130.72,421.574,96.261,421.574z M96.261,316.586c-23.431,0-42.494,19.063-42.494,42.494s19.063,42.494,42.494,42.494
	s42.494-19.063,42.494-42.494S119.692,316.586,96.261,316.586z"/>
<path style="fill:#FDA162;" d="M116.041,359.08L116.041,359.08c0,10.925-8.856,19.781-19.78,19.781l0,0
	c-10.924,0-19.78-8.856-19.78-19.78l0,0c0-10.924,8.856-19.78,19.78-19.78l0,0C107.185,339.299,116.041,348.155,116.041,359.08z"/>
<path d="M96.261,388.861c-16.421,0-29.781-13.359-29.781-29.78S79.839,329.3,96.261,329.3c16.421,0,29.78,13.359,29.78,29.78
	C126.041,375.501,112.682,388.861,96.261,388.861z M96.261,349.299c-5.393,0-9.781,4.387-9.781,9.78s4.388,9.781,9.781,9.781
	s9.78-4.387,9.78-9.78v-0.001C106.041,353.686,101.654,349.299,96.261,349.299z"/>
<g>
</g>
<g>
</g>
<g>
</g>
<g>
</g>
<g>
</g>
<g>
</g>
<g>
</g>
<g>
</g>
<g>
</g>
<g>
</g>
<g>
</g>
<g>
</g>
<g>
</g>
<g>
</g>
<g>
</g>
</svg>
