<?xml version="1.0" encoding="iso-8859-1"?>
<!-- Generator: Adobe Illustrator 19.0.0, SVG Export Plug-In . SVG Version: 6.00 Build 0)  -->
<svg version="1.1" id="Capa_1" xmlns="http://www.w3.org/2000/svg" xmlns:xlink="http://www.w3.org/1999/xlink" x="0px" y="0px"
	 viewBox="0 0 512 512" style="enable-background:new 0 0 512 512;" xml:space="preserve">
<g>
	<g>
		<rect x="203.755" y="359.445" width="15.673" height="15.673"/>
	</g>
</g>
<g>
	<g>
		<rect x="235.102" y="359.445" width="15.673" height="15.673"/>
	</g>
</g>
<g>
	<g>
		<rect x="141.061" y="334.367" width="15.673" height="15.673"/>
	</g>
</g>
<g>
	<g>
		<path d="M104.015,232.49L44.8,321.306h111.935V232.49H104.015z M141.061,305.633H74.087l38.315-57.469h28.658V305.633z"/>
	</g>
</g>
<g>
	<g>
		<path d="M462.482,148.898l-87.078-39.182l88.612-39.875l-6.432-14.294l-101.278,45.575l-55.885-25.148
			c-3.348-12.157-14.496-21.117-27.702-21.117h-41.796h-10.449h-41.796c-15.844,0-28.735,12.891-28.735,28.735v52.245
			c0,15.844,12.891,28.735,28.735,28.735h317.649v36.571H180.245H87.234H68.611c3.713-20.762,21.902-36.571,43.715-36.571h30.156
			v-15.673h-30.156c-33.13,0-60.082,26.952-60.082,60.082v7.837h24.54L0,331.994v93.802h58.363
			c7.298,18.341,25.216,31.347,46.127,31.347s38.829-13.006,46.127-31.347h165.987v-15.673H188.082v-10.449h173.033
			c-0.406,2.554-0.625,5.17-0.625,7.837c0,27.367,22.266,49.633,49.633,49.633c20.91,0,38.829-13.006,46.127-31.347H512V148.898
			H462.482z M243.984,135.837c0,7.203-5.859,13.061-13.061,13.061h-10.449h-41.796c-7.202,0-13.061-5.859-13.061-13.061V83.592
			c0-7.203,5.859-13.061,13.061-13.061h41.796h10.449c7.203,0,13.061,5.859,13.061,13.061V135.837z M285.78,132.859l-27.746,12.486
			c1.048-2.978,1.624-6.176,1.624-9.508V83.592c0-4.702-1.143-9.14-3.154-13.061h16.215c6.669,0,12.177,5.027,12.957,11.489v4.508
			l0.104,0.047V132.859z M301.453,93.627l35.755,16.089l-35.755,16.089V93.627z M298.3,148.898c0.882-1.72,1.596-3.54,2.119-5.439
			l55.888-25.15l67.978,30.588H298.3z M104.49,441.469c-18.726,0-33.959-15.234-33.959-33.959s15.234-33.959,33.959-33.959
			s33.959,15.234,33.959,33.959S123.215,441.469,104.49,441.469z M172.408,410.122h-18.355c0.045-0.865,0.069-1.736,0.069-2.612
			c0-2.667-0.217-5.283-0.625-7.837h18.911V410.122z M172.408,384h-24.219c-8.394-15.54-24.833-26.122-43.7-26.122
			c-27.367,0-49.633,22.266-49.633,49.633c0,0.877,0.024,1.747,0.069,2.612H15.673v-13.061h18.286v-15.673H15.673v-10.971h18.286
			v-15.673H15.673V336.74l79.949-119.924h76.785V384z M410.122,441.469c-18.726,0-33.959-15.234-33.959-33.959
			s15.234-33.959,33.959-33.959s33.959,15.234,33.959,33.959S428.848,441.469,410.122,441.469z M496.327,410.122h-36.64
			c0.045-0.865,0.069-1.736,0.069-2.612c0-2.667-0.217-5.283-0.625-7.837h37.196V410.122z M496.327,384h-42.504
			c-8.394-15.54-24.833-26.122-43.7-26.122c-18.867,0-35.305,10.583-43.7,26.122H188.082V216.816h308.245V384z"/>
	</g>
</g>
<g>
	<g>
		<rect x="446.694" y="175.02" width="15.674" height="15.674"/>
	</g>
</g>
<g>
	<g>
		<rect x="384" y="175.02" width="47.02" height="15.674"/>
	</g>
</g>
<g>
	<g>
		<rect x="332.278" y="410.122" width="15.674" height="15.673"/>
	</g>
</g>
<g>
	<g>
		<path d="M104.49,384c-12.963,0-23.51,10.547-23.51,23.51s10.547,23.51,23.51,23.51S128,420.473,128,407.51S117.453,384,104.49,384
			z M104.49,415.347c-4.322,0-7.837-3.515-7.837-7.837c0-4.322,3.515-7.837,7.837-7.837s7.837,3.515,7.837,7.837
			C112.327,411.832,108.812,415.347,104.49,415.347z"/>
	</g>
</g>
<g>
	<g>
		<path d="M410.122,384c-12.963,0-23.51,10.547-23.51,23.51s10.547,23.51,23.51,23.51s23.51-10.547,23.51-23.51
			S423.085,384,410.122,384z M410.122,415.347c-4.322,0-7.837-3.515-7.837-7.837c0-4.322,3.515-7.837,7.837-7.837
			c4.322,0,7.837,3.515,7.837,7.837C417.959,411.832,414.444,415.347,410.122,415.347z"/>
	</g>
</g>
<g>
	<g>
		<path d="M457.143,309.29v-83.592H222.041v83.592h-20.898v7.837c0,18.726,15.234,33.959,33.959,33.959h208.98
			c18.726,0,33.959-15.234,33.959-33.959v-7.837H457.143z M279.51,241.371h120.163v15.673H279.51V241.371z M399.673,272.718v10.449
			h-17.506l-6.269-10.449H399.673z M279.51,272.718h71.841l-6.269,10.449H279.51V272.718z M237.714,241.371h26.122v57.469h90.118
			l9.669-16.115l9.669,16.115h42.053v-57.469h26.122v67.918H237.714V241.371z M444.082,335.412h-208.98
			c-7.281,0-13.581-4.277-16.521-10.449h3.46h235.102h3.459C457.662,331.136,451.361,335.412,444.082,335.412z"/>
	</g>
</g>
<g>
	<g>
		<path d="M204.8,86.204c-12.963,0-23.51,10.547-23.51,23.51s10.547,23.51,23.51,23.51s23.51-10.547,23.51-23.51
			S217.763,86.204,204.8,86.204z M204.8,117.551c-4.322,0-7.837-3.515-7.837-7.837s3.515-7.837,7.837-7.837
			c4.322,0,7.837,3.515,7.837,7.837S209.122,117.551,204.8,117.551z"/>
	</g>
</g>
<g>
	<g>
		<rect x="102.4" y="175.02" width="15.673" height="15.674"/>
	</g>
</g>
<g>
</g>
<g>
</g>
<g>
</g>
<g>
</g>
<g>
</g>
<g>
</g>
<g>
</g>
<g>
</g>
<g>
</g>
<g>
</g>
<g>
</g>
<g>
</g>
<g>
</g>
<g>
</g>
<g>
</g>
</svg>
