<?xml version="1.0" encoding="iso-8859-1"?>
<!-- Generator: Adobe Illustrator 19.0.0, SVG Export Plug-In . SVG Version: 6.00 Build 0)  -->
<svg version="1.1" id="Capa_1" xmlns="http://www.w3.org/2000/svg" xmlns:xlink="http://www.w3.org/1999/xlink" x="0px" y="0px"
	 viewBox="0 0 512 512" style="enable-background:new 0 0 512 512;" xml:space="preserve">
<g>
	<g>
		<path d="M464.7,479.329c-0.13-0.64-0.32-1.269-0.57-1.87c-0.25-0.6-0.56-1.19-0.92-1.73c-0.37-0.54-0.78-1.06-1.25-1.52
			c-0.46-0.46-0.97-0.88-1.52-1.24c-0.54-0.36-1.12-0.67-1.72-0.92c-0.61-0.25-1.23-0.44-1.87-0.57c-1.289-0.26-2.62-0.26-3.91,0
			c-0.64,0.13-1.27,0.32-1.87,0.57c-0.61,0.25-1.19,0.56-1.73,0.92c-0.55,0.36-1.06,0.78-1.52,1.24c-0.46,0.46-0.88,0.98-1.24,1.52
			s-0.67,1.13-0.92,1.73c-0.25,0.6-0.44,1.23-0.57,1.87c-0.13,0.64-0.2,1.3-0.2,1.95c0,0.66,0.07,1.31,0.2,1.96
			c0.13,0.63,0.32,1.26,0.57,1.87c0.25,0.6,0.56,1.18,0.92,1.72c0.36,0.55,0.78,1.06,1.24,1.52c0.46,0.461,0.97,0.88,1.52,1.25
			c0.54,0.36,1.12,0.67,1.73,0.92c0.6,0.25,1.23,0.44,1.87,0.57c0.64,0.13,1.3,0.19,1.95,0.19c2.63,0,5.21-1.06,7.07-2.93
			c0.47-0.46,0.88-0.97,1.25-1.52c0.36-0.54,0.67-1.12,0.92-1.72c0.25-0.61,0.44-1.24,0.57-1.87c0.13-0.65,0.19-1.3,0.19-1.96
			C464.89,480.629,464.83,479.969,464.7,479.329z"/>
	</g>
</g>
<g>
	<g>
		<path d="M511.81,28.759c-0.13-0.64-0.33-1.26-0.58-1.87c-0.25-0.6-0.56-1.18-0.92-1.72c-0.36-0.55-0.78-1.06-1.24-1.53
			c-2.32-2.32-5.77-3.38-9.02-2.73c-0.64,0.13-1.27,0.32-1.87,0.57c-0.61,0.25-1.19,0.56-1.73,0.92c-0.55,0.37-1.06,0.78-1.52,1.24
			c-0.46,0.47-0.88,0.98-1.24,1.53c-0.36,0.54-0.67,1.12-0.92,1.72c-0.25,0.61-0.45,1.23-0.57,1.87c-0.13,0.65-0.2,1.3-0.2,1.96
			c0,0.65,0.07,1.31,0.2,1.95c0.12,0.64,0.32,1.27,0.57,1.87s0.56,1.19,0.92,1.73c0.36,0.54,0.78,1.06,1.24,1.52
			c0.46,0.46,0.97,0.88,1.52,1.24c0.54,0.36,1.12,0.67,1.73,0.92c0.6,0.25,1.23,0.44,1.87,0.57s1.3,0.2,1.95,0.2
			c0.65,0,1.31-0.07,1.95-0.2s1.27-0.32,1.88-0.57c0.6-0.25,1.18-0.56,1.72-0.92c0.55-0.36,1.06-0.78,1.52-1.24
			c1.86-1.87,2.93-4.44,2.93-7.07C512,30.06,511.94,29.409,511.81,28.759z"/>
	</g>
</g>
<g>
	<g>
		<path d="M496.247,57.616c-5.402-1.155-10.715,2.287-11.87,7.688l-19.483,91.094V30.82c0-5.523-4.477-10-10-10s-10,4.477-10,10
			v219.089l-46.885,219.216c-1.155,5.4,2.287,10.715,7.687,11.87c0.705,0.151,1.408,0.223,2.101,0.223
			c4.616,0,8.765-3.215,9.769-7.911l27.328-127.773v98.239c0,5.523,4.477,10,10,10s10-4.477,10-10v-191.75l39.04-182.537
			C505.089,64.086,501.647,58.771,496.247,57.616z"/>
	</g>
</g>
<g>
	<g>
		<path d="M146.272,56.658H46.249C20.748,56.658,0,77.406,0,102.908v100.023c0,25.502,20.748,46.25,46.249,46.25h100.023
			c25.502,0,46.249-20.748,46.249-46.25V102.908C192.521,77.406,171.774,56.658,146.272,56.658z M172.521,202.931
			c0,14.474-11.775,26.25-26.249,26.25H46.249C31.775,229.18,20,217.405,20,202.931V102.908c0-14.474,11.775-26.249,26.249-26.249
			h100.023c14.474,0,26.249,11.775,26.249,26.249V202.931z"/>
	</g>
</g>
<g>
	<g>
		<path d="M132.632,90.425H59.889c-14.404,0-26.122,11.718-26.122,26.122v72.743c0,14.404,11.718,26.122,26.122,26.122h72.743
			c14.404,0,26.122-11.718,26.122-26.122v-72.743C158.754,102.143,147.036,90.425,132.632,90.425z M132.632,195.412H59.889
			c-3.375,0-6.122-2.747-6.122-6.122v-72.743c0-3.375,2.747-6.122,6.122-6.122h72.743c3.376,0,6.122,2.747,6.122,6.122v72.743h0
			C138.754,192.666,136.007,195.412,132.632,195.412z"/>
	</g>
</g>
<g>
	<g>
		<path d="M96.26,123.138c-16.421,0-29.78,13.36-29.78,29.781s13.359,29.78,29.781,29.78c16.421,0,29.78-13.359,29.78-29.781
			C126.041,136.496,112.682,123.138,96.26,123.138z M96.26,162.7c-5.393,0-9.78-4.387-9.78-9.78v-0.001
			c0-5.393,4.388-9.781,9.781-9.781s9.78,4.388,9.78,9.781S101.653,162.7,96.26,162.7z"/>
	</g>
</g>
<g>
	<g>
		<path d="M299.046,56.658c-53.078,0-96.261,43.182-96.261,96.261c0,53.079,43.183,96.261,96.261,96.261
			s96.261-43.183,96.261-96.261S352.124,56.658,299.046,56.658z M299.046,229.18c-42.05,0-76.261-34.211-76.261-76.261
			c0-42.05,34.21-76.261,76.261-76.261c42.051,0,76.261,34.21,76.261,76.261C375.307,194.97,341.096,229.18,299.046,229.18z"/>
	</g>
</g>
<g>
	<g>
		<path d="M299.046,90.425c-34.46,0-62.494,28.035-62.494,62.494s28.035,62.494,62.494,62.494c34.459,0,62.494-28.035,62.494-62.494
			S333.505,90.425,299.046,90.425z M299.046,195.413c-23.431,0-42.494-19.063-42.494-42.494c0-23.431,19.063-42.494,42.494-42.494
			c23.431,0,42.494,19.063,42.494,42.494C341.54,176.35,322.477,195.413,299.046,195.413z"/>
	</g>
</g>
<g>
	<g>
		<path d="M299.045,123.138c-16.421,0-29.78,13.36-29.78,29.781s13.359,29.78,29.78,29.78c16.421,0,29.781-13.359,29.781-29.781
			C328.826,136.496,315.467,123.138,299.045,123.138z M299.045,162.7c-5.393,0-9.78-4.387-9.78-9.78v-0.001
			c0-5.393,4.387-9.781,9.78-9.781s9.781,4.388,9.781,9.781C308.826,158.312,304.438,162.7,299.045,162.7z"/>
	</g>
</g>
<g>
	<g>
		<path d="M349.057,262.819H249.035c-25.502,0-46.249,20.748-46.249,46.249v100.023c0,25.502,20.747,46.249,46.249,46.249h100.022
			c25.502,0,46.249-20.748,46.249-46.249V309.069C395.307,283.567,374.559,262.819,349.057,262.819z M349.058,435.34H249.035
			c-14.474,0-26.249-11.775-26.249-26.249V309.069c0-14.474,11.775-26.249,26.249-26.249h100.022
			c14.474,0,26.249,11.775,26.249,26.249v100.022h0.001C375.307,423.565,363.532,435.34,349.058,435.34z"/>
	</g>
</g>
<g>
	<g>
		<path d="M335.417,296.586h-72.743c-14.404,0-26.122,11.718-26.122,26.122v72.743c0,14.404,11.718,26.122,26.122,26.122h72.743
			c14.404,0,26.122-11.718,26.122-26.122v-72.743C361.54,308.305,349.821,296.586,335.417,296.586z M335.418,401.574h-72.743
			c-3.375,0-6.122-2.747-6.122-6.122v-72.743c0-3.375,2.747-6.122,6.122-6.122h72.743c3.376,0,6.122,2.747,6.122,6.122v72.743h0
			C341.54,398.827,338.793,401.574,335.418,401.574z"/>
	</g>
</g>
<g>
	<g>
		<path d="M299.046,329.299c-16.421,0-29.78,13.36-29.78,29.781c0,16.421,13.359,29.78,29.781,29.78
			c16.421,0,29.78-13.36,29.78-29.781C328.827,342.659,315.467,329.299,299.046,329.299z M308.827,359.081
			c0,5.393-4.388,9.78-9.781,9.78s-9.78-4.388-9.78-9.781s4.388-9.78,9.781-9.78s9.78,4.387,9.78,9.78V359.081z"/>
	</g>
</g>
<g>
	<g>
		<path d="M96.261,262.819C43.183,262.819,0,306.002,0,359.08c0,53.078,43.183,96.261,96.261,96.261s96.261-43.183,96.261-96.261
			C192.521,306.002,149.339,262.819,96.261,262.819z M96.261,435.341C54.21,435.341,20,401.13,20,359.08
			c0-42.05,34.21-76.261,76.261-76.261c42.051,0,76.261,34.21,76.261,76.261C172.522,401.131,138.311,435.341,96.261,435.341z"/>
	</g>
</g>
<g>
	<g>
		<path d="M96.261,296.586c-34.459,0-62.494,28.035-62.494,62.494s28.035,62.494,62.494,62.494c34.46,0,62.494-28.035,62.494-62.494
			S130.72,296.586,96.261,296.586z M96.261,401.574c-23.431,0-42.494-19.063-42.494-42.494c0-23.431,19.063-42.494,42.494-42.494
			c23.431,0,42.494,19.063,42.494,42.494C138.755,382.511,119.692,401.574,96.261,401.574z"/>
	</g>
</g>
<g>
	<g>
		<path d="M96.261,329.299c-16.421,0-29.781,13.36-29.781,29.781c0,16.421,13.359,29.78,29.781,29.78
			c16.421,0,29.78-13.36,29.78-29.781C126.041,342.659,112.682,329.299,96.261,329.299z M106.041,359.081
			c0,5.393-4.387,9.78-9.78,9.78s-9.781-4.388-9.781-9.781s4.388-9.78,9.781-9.78s9.78,4.387,9.78,9.78V359.081z"/>
	</g>
</g>
<g>
</g>
<g>
</g>
<g>
</g>
<g>
</g>
<g>
</g>
<g>
</g>
<g>
</g>
<g>
</g>
<g>
</g>
<g>
</g>
<g>
</g>
<g>
</g>
<g>
</g>
<g>
</g>
<g>
</g>
</svg>
