<?xml version="1.0" encoding="iso-8859-1"?>
<!-- Generator: Adobe Illustrator 19.0.0, SVG Export Plug-In . SVG Version: 6.00 Build 0)  -->
<svg version="1.1" id="Layer_1" xmlns="http://www.w3.org/2000/svg" xmlns:xlink="http://www.w3.org/1999/xlink" x="0px" y="0px"
	 viewBox="0 0 512 512" style="enable-background:new 0 0 512 512;" xml:space="preserve">
<g>
	<g>
		<g>
			<path d="M382.829,251.437c-54.097,0-98.108,44.011-98.108,98.109c0,54.097,44.011,98.107,98.108,98.107
				c54.098,0,98.109-44.01,98.109-98.107C480.938,295.449,436.927,251.437,382.829,251.437z M459.134,360.75
				c2.162,0,4.118-0.87,5.542-2.278c-2.558,23.609-15.136,44.247-33.382,57.579c0.84-2.706,0.192-5.775-1.951-7.918l-4.768-4.767
				c-3.083-3.08-8.075-3.079-11.15,0.001c-3.079,3.08-3.079,8.072,0.001,11.152l4.768,4.767c1.282,1.281,2.895,2.021,4.563,2.236
				c-11.835,6.591-25.445,10.362-39.927,10.362c-21.311,0-40.755-8.139-55.392-21.47c0.4,0.061,0.801,0.101,1.205,0.101
				c2.018,0,4.036-0.77,5.575-2.309c3.08-3.079,3.08-8.071,0.001-11.15l-5.057-5.059c-3.079-3.079-8.072-3.08-11.152-0.001
				c-1.436,1.435-2.193,3.288-2.291,5.167c-9.573-13.454-15.228-29.881-15.228-47.615c0-45.402,36.937-82.339,82.338-82.339
				c42.385,0,77.38,32.194,81.847,73.411c-1.425-1.408-3.38-2.278-5.542-2.278c-4.355,0-7.885,3.529-7.885,7.885v6.64
				C451.249,357.221,454.779,360.75,459.134,360.75z"/>
			<path d="M449.203,315.764l-4.336-4.336c-3.08-3.078-8.072-3.078-11.152,0c-1.568,1.568-2.332,3.63-2.305,5.685
				c-10.286-15.358-27.654-25.577-47.393-25.974c-0.022-0.001-0.043-0.004-0.064-0.004l-0.27-0.008
				c-0.284-0.009-0.575-0.007-0.855-0.018c-32.221,0-58.436,26.215-58.436,58.438c0,32.22,26.215,58.434,58.436,58.434
				s58.436-26.214,58.436-58.434c0-8.973-2.037-17.479-5.668-25.083l2.453,2.453c1.54,1.539,3.559,2.309,5.576,2.309
				s4.036-0.77,5.576-2.309C452.283,323.836,452.283,318.844,449.203,315.764z M340.562,355.307c-0.255-1.885-0.4-3.806-0.4-5.76
				c0-17.513,10.61-32.589,25.737-39.156c-1.14,5.086-1.718,10.301-1.718,15.61c0,12.797,3.332,25.063,9.69,35.922
				c-3.631,1.413-7.503,2.156-11.476,2.156C354.157,364.078,346.49,360.974,340.562,355.307z M382.829,392.211
				c-12.322,0-23.434-5.256-31.23-13.636c3.517,0.83,7.135,1.274,10.795,1.274c7.429,0,14.633-1.706,21.176-4.978
				c5.006,5.304,10.817,9.827,17.161,13.389C395.283,390.788,389.221,392.211,382.829,392.211z M414.906,377.631
				c-21.091-8.368-34.956-28.564-34.956-51.631c0-6.596,1.155-13,3.401-19.107c0.109,0.003,0.219,0.007,0.329,0.009
				c0.039,0.001,0.077,0.001,0.116,0.001c23.08,0.518,41.698,19.44,41.698,42.643C425.496,360.295,421.491,370.121,414.906,377.631z
				"/>
			<path d="M500.673,141.551L29.06,44.908c-3.702-0.76-7.46-0.015-10.583,2.096c-3.122,2.111-5.214,5.321-5.889,9.035L7.247,85.406
				c-0.676,3.712,0.15,7.45,2.327,10.524c2.177,3.076,5.43,5.098,9.164,5.695l475.435,75.632c0.74,0.118,1.477,0.176,2.207,0.176
				c6.712-0.001,12.737-4.849,13.972-11.637l1.422-7.823C513.14,150.451,508.16,143.085,500.673,141.551z M495.115,161.438
				L23.103,86.351l4.658-25.611l468.217,95.948L495.115,161.438z"/>
			<path d="M199.208,315.765l-4.336-4.336c-3.08-3.08-8.071-3.079-11.152-0.001c-1.568,1.568-2.333,3.631-2.305,5.686
				c-10.286-15.359-27.654-25.578-47.393-25.975c-0.022-0.001-0.043-0.004-0.065-0.004l-0.269-0.008
				c-0.285-0.009-0.579-0.054-0.855-0.018c-32.221,0-58.435,26.215-58.435,58.438c0,32.22,26.214,58.434,58.435,58.434
				s58.436-26.214,58.436-58.434c0-8.974-2.039-17.48-5.669-25.086l2.454,2.454c1.54,1.54,3.558,2.31,5.576,2.31
				c2.018,0,4.035-0.77,5.575-2.309C202.286,323.837,202.286,318.844,199.208,315.765z M90.568,355.308
				c-0.255-1.886-0.4-3.807-0.4-5.761c0-17.513,10.609-32.589,25.736-39.156c-1.14,5.086-1.718,10.301-1.718,15.609
				c0,12.797,3.332,25.063,9.69,35.922c-3.631,1.413-7.503,2.156-11.475,2.156C104.164,364.078,96.495,360.975,90.568,355.308z
				 M132.834,392.211c-12.322,0-23.433-5.256-31.229-13.636c3.516,0.83,7.134,1.273,10.795,1.273c7.428,0,14.631-1.706,21.176-4.978
				c5.006,5.304,10.817,9.826,17.161,13.389C145.289,390.788,139.226,392.211,132.834,392.211z M164.911,377.631
				c-21.091-8.368-34.956-28.564-34.956-51.631c0-6.595,1.155-12.999,3.401-19.107c0.109,0.003,0.219,0.007,0.328,0.009
				c0.039,0.001,0.078,0.001,0.116,0.001c23.08,0.518,41.699,19.44,41.699,42.643C175.5,360.295,171.496,370.121,164.911,377.631z"
				/>
			<path d="M81.818,318.87c3.079-3.079,3.078-8.072,0-11.151l-4.404-4.404c-3.08-3.078-8.072-3.079-11.152,0.001
				c-3.079,3.079-3.078,8.072,0,11.15l4.404,4.404c1.54,1.539,3.558,2.309,5.575,2.309C78.26,321.18,80.279,320.411,81.818,318.87z"
				/>
			<path d="M164.885,292.836h4.842c4.355,0,7.885-3.529,7.885-7.885c0-4.355-3.53-7.885-7.885-7.885h-4.842
				c-4.355,0-7.885,3.53-7.885,7.885C157,289.307,160.53,292.836,164.885,292.836z"/>
			<path d="M382.829,231.708c-64.976,0-117.837,52.861-117.837,117.838c0,64.976,52.861,117.836,117.837,117.836
				s117.837-52.86,117.837-117.836C500.666,284.57,447.805,231.708,382.829,231.708z M382.829,451.612
				c-56.28,0-102.067-45.787-102.067-102.066c0-56.28,45.787-102.068,102.067-102.068c56.28,0,102.067,45.788,102.067,102.068
				C484.896,405.826,439.109,451.612,382.829,451.612z"/>
			<path d="M88.078,301.082c2.019,0,4.036-0.77,5.576-2.31l4.562-4.563c3.079-3.08,3.078-8.072-0.001-11.15
				c-3.079-3.078-8.072-3.079-11.15,0.001l-4.562,4.563c-3.079,3.08-3.078,8.072,0.001,11.15
				C84.043,300.312,86.061,301.082,88.078,301.082z"/>
			<path d="M338.074,301.082c2.019,0,4.037-0.77,5.576-2.31l4.562-4.563c3.079-3.08,3.079-8.072-0.001-11.15
				c-3.083-3.08-8.075-3.079-11.151,0.001l-4.562,4.563c-3.079,3.08-3.079,8.072,0.001,11.15
				C334.039,300.312,336.056,301.082,338.074,301.082z"/>
			<path d="M331.814,318.87c3.079-3.08,3.079-8.072-0.001-11.151l-4.405-4.404c-3.081-3.08-8.074-3.079-11.15,0.001
				c-3.079,3.08-3.079,8.072,0.001,11.15l4.405,4.404c1.54,1.539,3.558,2.309,5.575,2.309S330.275,320.411,331.814,318.87z"/>
			<path d="M414.879,292.836h4.842c4.356,0,7.885-3.529,7.885-7.885c0-4.355-3.529-7.885-7.885-7.885h-4.842
				c-4.356,0-7.885,3.53-7.885,7.885C406.994,289.307,410.524,292.836,414.879,292.836z"/>
			<path d="M132.834,251.437c-54.098,0-98.108,44.011-98.108,98.109c0,54.097,44.011,98.107,98.108,98.107
				c54.098,0,98.11-44.01,98.11-98.107S186.931,251.437,132.834,251.437z M209.139,360.75c2.162,0,4.118-0.87,5.542-2.278
				c-2.558,23.609-15.136,44.247-33.382,57.58c0.839-2.706,0.191-5.775-1.951-7.918l-4.768-4.767
				c-3.08-3.078-8.072-3.079-11.151,0.001c-3.079,3.079-3.078,8.072,0.001,11.152l4.768,4.767c1.282,1.28,2.895,2.021,4.564,2.236
				c-11.835,6.591-25.445,10.362-39.927,10.362c-21.311,0-40.755-8.139-55.392-21.47c0.399,0.061,0.802,0.101,1.205,0.101
				c2.019,0,4.036-0.77,5.575-2.309c3.079-3.079,3.079-8.072,0-11.15l-5.058-5.059c-3.079-3.08-8.072-3.079-11.151-0.001
				c-1.435,1.435-2.193,3.288-2.29,5.167c-9.573-13.454-15.228-29.882-15.228-47.615c0-45.402,36.937-82.339,82.338-82.339
				c42.385,0,77.382,32.194,81.848,73.411c-1.425-1.408-3.381-2.278-5.542-2.278c-4.355,0-7.885,3.529-7.885,7.885v6.64
				C201.254,357.221,204.784,360.75,209.139,360.75z"/>
			<path d="M132.834,231.708c-64.976,0-117.837,52.861-117.837,117.838c0,64.976,52.861,117.836,117.837,117.836
				s117.837-52.86,117.837-117.836C250.671,284.57,197.81,231.708,132.834,231.708z M132.834,451.612
				c-56.28,0-102.067-45.787-102.067-102.066c0-56.28,45.787-102.068,102.067-102.068s102.067,45.788,102.067,102.068
				C234.901,405.826,189.114,451.612,132.834,451.612z"/>
			<path d="M496.44,179.406c-0.001,0-0.001,0-0.002,0L15.934,149.771c-3.768-0.221-7.386,1.033-10.182,3.562
				c-2.796,2.526-4.417,5.996-4.565,9.77l-1.175,29.83c-0.148,3.772,1.194,7.357,3.782,10.096c2.587,2.739,6.09,4.284,9.869,4.352
				l481.345,8.291c0.083,0.001,0.165,0.002,0.247,0.002c7.54,0,13.869-6.06,14.164-13.614l0.315-7.949
				C510.028,186.475,504.065,179.878,496.44,179.406z M493.721,199.876l-477.877-8.231l1.025-26.014l477.044,29.42L493.721,199.876z
				"/>
		</g>
	</g>
</g>
<g>
</g>
<g>
</g>
<g>
</g>
<g>
</g>
<g>
</g>
<g>
</g>
<g>
</g>
<g>
</g>
<g>
</g>
<g>
</g>
<g>
</g>
<g>
</g>
<g>
</g>
<g>
</g>
<g>
</g>
</svg>
