<?xml version="1.0" encoding="iso-8859-1"?>
<!-- Generator: Adobe Illustrator 16.0.0, SVG Export Plug-In . SVG Version: 6.00 Build 0)  -->
<!DOCTYPE svg PUBLIC "-//W3C//DTD SVG 1.1//EN" "http://www.w3.org/Graphics/SVG/1.1/DTD/svg11.dtd">
<svg version="1.1" id="Capa_1" xmlns="http://www.w3.org/2000/svg" xmlns:xlink="http://www.w3.org/1999/xlink" x="0px" y="0px"
	 width="263.65px" height="263.65px" viewBox="0 0 263.65 263.65" style="enable-background:new 0 0 263.65 263.65;"
	 xml:space="preserve">
<g>
	<g>
		<g id="Layer_5_14_">
			<g>
				<path d="M263.606,87.275c2.18-39.461-85.909-72.11-131.781-72.11c-45.869,0-133.961,32.649-131.78,72.11H0v85.596h0.043
					c0.031,0.593,0.078,1.185,0.15,1.771c4.912,40.231,85.094,73.844,131.632,73.844c46.541,0,126.72-33.611,131.633-73.846
					c0.071-0.586,0.118-1.176,0.15-1.77h0.042V87.274L263.606,87.275L263.606,87.275z M240.906,88.658
					c-4.172,33.092-70.202,60.99-108.46,61.146c-38.261,0.154-104.067-27.208-107.971-60.267
					c-3.904-33.061,70.202-60.99,108.462-61.147C171.196,28.235,245.078,55.569,240.906,88.658z"/>
				<path d="M183.571,81.234c0-11.504-11.264-20.83-25.158-20.83c-10.567,0-19.61,5.396-23.336,13.041
					c-0.119,0.244-0.536,0.283-0.784-0.209c-3.795-7.531-12.764-12.832-23.234-12.832c-13.894,0-25.158,9.326-25.158,20.83
					c0,4.836,1.999,9.285,5.34,12.822h-0.01l0.043,0.037c1.123,1.18,2.388,2.262,3.786,3.216l40.12,19.965
					c0,0,0.653,0.247,1.111,0.247c0.562,0,1.167-0.398,1.167-0.398l37.541-20.227h-0.008
					C180.247,93.076,183.571,87.477,183.571,81.234z"/>
			</g>
		</g>
	</g>
</g>
<g>
</g>
<g>
</g>
<g>
</g>
<g>
</g>
<g>
</g>
<g>
</g>
<g>
</g>
<g>
</g>
<g>
</g>
<g>
</g>
<g>
</g>
<g>
</g>
<g>
</g>
<g>
</g>
<g>
</g>
</svg>
